<svg width="45" height="45" fill="none" xmlns="http://www.w3.org/2000/svg"><circle cx="22.5" cy="22.5" r="22.5" fill="#1E3864"/><path d="M22.5 12.12a3.6 3.6 0 00-2.058.643.4.4 0 00-.101.553c.123.18.369.226.548.102a2.814 2.814 0 011.611-.503c1.569 0 2.846 1.286 2.846 2.867 0 1.58-1.277 2.867-2.846 2.867-1.57 0-2.846-1.287-2.846-2.867 0-.467.108-.911.32-1.322a.399.399 0 00-.168-.535.393.393 0 00-.532.169 3.695 3.695 0 00-.408 1.688c0 2.019 1.63 3.661 3.634 3.661s3.634-1.642 3.634-3.661c0-2.02-1.63-3.662-3.634-3.662z" fill="#fff"/><path d="M35.97 33.65l-3.892-9.422a.394.394 0 00-.364-.244h-3.879a20.114 20.114 0 001.873-3.058c.869-1.782 1.31-3.513 1.31-5.144 0-4.732-3.822-8.582-8.518-8.582-4.697 0-8.518 3.85-8.518 8.581 0 1.632.441 3.362 1.31 5.144a20.11 20.11 0 001.873 3.058h-3.879a.394.394 0 00-.364.245l-2.652 6.42a.398.398 0 00.364.55.394.394 0 00.364-.244l.379-.916h2.684l-1.391 3.367H9.986l.403-.976a.398.398 0 00-.213-.52.393.393 0 00-.515.215l-.63 1.526a.4.4 0 00.035.373c.073.11.196.177.328.177h26.212a.394.394 0 00.328-.177.4.4 0 00.036-.373zm-21.2-17.868c0-4.294 3.467-7.787 7.729-7.787 4.262 0 7.729 3.493 7.729 7.786 0 1.801-.621 4.678-3.494 8.345l-.008.01a23.3 23.3 0 01-.458.567 30.338 30.338 0 01-3.77 3.784 30.293 30.293 0 01-3.758-3.771c-.163-.196-.319-.39-.469-.58l-.007-.01c-2.873-3.666-3.494-6.543-3.494-8.345zm-1.222 8.996h2.685l-.98 2.37H12.57l.98-2.37zm2.306 8.627l2.465-5.966 7.015 5.966h-9.48zm10.702 0l-8.14-6.924a.392.392 0 00-.618.151L15 33.405h-1.477l1.493-3.612a.4.4 0 00-.037-.373.394.394 0 00-.328-.177h-2.947l.537-1.3h3.276a.395.395 0 00.364-.245l1.206-2.92h.684c.12.15.24.299.364.448 2.035 2.448 4.038 4.02 4.123 4.086a.392.392 0 00.482 0c.047-.036.673-.528 1.565-1.369h4.466a.396.396 0 00.394-.397.396.396 0 00-.394-.398h-3.653a30.511 30.511 0 002.108-2.37h4.224l.979 2.37h-2.081a.396.396 0 00-.394.398c0 .22.176.397.394.397h2.409l.537 1.3H25.17a.4.4 0 00-.259.697l3.963 3.465h-2.317zm3.52 0l-3.851-3.367h7.397l1.391 3.367h-4.937z" fill="#fff"/></svg>