<svg width="40" height="40" fill="none" xmlns="http://www.w3.org/2000/svg"><g clip-path="url(#clip0)" fill="#1E3864"><path d="M15.865 20.229a.78.78 0 10-1.105 1.102.78.78 0 001.105-1.102zM20 21.563a2.346 2.346 0 00-2.344 2.343A2.346 2.346 0 0020 26.25a2.346 2.346 0 002.344-2.344A2.346 2.346 0 0020 21.563zm0 3.125a.782.782 0 010-1.563.782.782 0 010 1.563z"/><path d="M20 17.656c-.873 0-1.718.177-2.51.525a.781.781 0 00.63 1.43 4.693 4.693 0 016.568 4.295A4.693 4.693 0 0120 28.594a4.693 4.693 0 01-4.688-4.688l.001-.08a.781.781 0 10-1.562-.035l-.001.115a6.257 6.257 0 006.25 6.25 6.257 6.257 0 006.25-6.25 6.257 6.257 0 00-6.25-6.25zm0-11.718a.781.781 0 00-.781.78v4.688a.781.781 0 101.562 0V6.72A.781.781 0 0020 5.937zm-8.728 5.792L7.958 8.415A.781.781 0 006.853 9.52l3.314 3.314a.781.781 0 101.105-1.104zm21.875-3.315a.781.781 0 00-1.105 0l-3.314 3.315a.781.781 0 001.105 1.104l3.314-3.314a.781.781 0 000-1.105z"/><path d="M39.804 24.04C34.841 18.42 27.472 13.75 20 13.75c-7.473 0-14.842 4.672-19.804 10.29a.781.781 0 001.17 1.034c.167-.188.338-.376.51-.563 3.861 5.833 10.86 9.552 18.124 9.552 7.265 0 14.263-3.719 18.123-9.552.173.187.344.375.51.563a.781.781 0 101.171-1.034zM20 32.5c-6.868 0-13.474-3.569-17.007-9.14 2.783-2.726 9.215-8.047 17.007-8.047 7.792 0 14.224 5.32 17.007 8.048C33.474 28.93 26.868 32.5 20 32.5z"/></g><defs><clipPath id="clip0"><path fill="#fff" d="M0 0h40v40H0z"/></clipPath></defs></svg>