<svg width="50" height="50" fill="none" xmlns="http://www.w3.org/2000/svg"><g clip-path="url(#clip0)" fill="#1E3864"><path d="M42.145 30.704a3.8 3.8 0 00-3.796-3.797h-.795a.733.733 0 000 1.466h.795a2.333 2.333 0 012.33 2.33 2.32 2.32 0 01-1.29 2.086.733.733 0 00-.1 1.252c.554.396.885 1.039.885 1.718 0 .867-.544 1.659-1.353 1.97a.733.733 0 00-.23 1.226c.396.362.624.877.624 1.413 0 .89-.63 1.676-1.499 1.867a.92.92 0 00-.24 1.701c.599.33.978.958.99 1.64.01.503-.184.983-.545 1.35-.372.379-.89.596-1.423.596H20.691c-.598 0-1.188-.16-1.703-.465l-1.313-.775V42.59a.733.733 0 10-1.467 0v4.484a1.46 1.46 0 01-1.458 1.458H3.527a.733.733 0 100 1.466H14.75a2.93 2.93 0 002.802-2.087l.69.407a4.822 4.822 0 002.45.67h15.806c.923 0 1.823-.378 2.47-1.036.638-.65.98-1.503.964-2.404a3.384 3.384 0 00-.929-2.264 3.401 3.401 0 001.678-2.917c0-.618-.17-1.22-.484-1.74a3.604 3.604 0 001.443-2.87c0-.81-.278-1.59-.77-2.215a3.773 3.773 0 001.275-2.84zM25.38 7.882a.022.022 0 01.007.02l-.425 2.544c-.093.563.136 1.12.6 1.452a1.482 1.482 0 001.566.106l2.278-1.211a.021.021 0 01.02 0l2.289 1.19a1.479 1.479 0 001.566-.121c.46-.338.684-.896.585-1.458l-.448-2.54a.022.022 0 01.006-.02l1.839-1.809c.407-.4.548-.985.37-1.527a1.479 1.479 0 00-1.207-1.007l-2.554-.359a.021.021 0 01-.016-.011L30.703.823A1.479 1.479 0 0029.373 0h-.008a1.48 1.48 0 00-1.33.836l-1.13 2.318a.021.021 0 01-.017.012l-2.55.383a1.479 1.479 0 00-1.197 1.018 1.479 1.479 0 00.384 1.523l1.855 1.792zm-.836-2.88s.003-.002.01-.003l2.552-.383a1.488 1.488 0 001.116-.82l1.13-2.318a.038.038 0 01.007-.009c.005-.004.021-.004.027 0l.006.01 1.152 2.307c.219.438.64.74 1.124.809l2.555.358.01.003c.005.004.01.02.009.026l-.007.008-1.839 1.81c-.35.343-.507.836-.422 1.318l.448 2.54c.002.008.001.011.001.011-.002.006-.015.016-.022.016 0 0-.003 0-.01-.004l-2.289-1.19a1.487 1.487 0 00-1.384.007L26.44 10.71a.036.036 0 01-.01.005c-.007 0-.02-.01-.022-.016v-.011l.425-2.545a1.488 1.488 0 00-.434-1.315l-1.856-1.791a.029.029 0 01-.007-.009c-.002-.006.003-.021.008-.025zM13.291 12.6l-.327 1.964a1.327 1.327 0 00.537 1.304 1.331 1.331 0 001.407.095l1.758-.935 1.766.918c.454.236.993.195 1.406-.108.413-.303.614-.804.525-1.309l-.346-1.96 1.419-1.396c.365-.36.492-.884.331-1.37a1.327 1.327 0 00-1.082-.904l-1.971-.277-.89-1.781a1.327 1.327 0 00-1.194-.739h-.006c-.513.002-.97.29-1.195.75l-.872 1.79-1.969.295a1.327 1.327 0 00-1.073.914 1.327 1.327 0 00.344 1.367l1.432 1.383zm1.552-2.519c.434-.065.81-.34 1.002-.735l.786-1.613.802 1.605c.196.394.574.665 1.01.726l1.776.25-1.279 1.258a1.338 1.338 0 00-.379 1.184l.312 1.767-1.592-.827c-.39-.203-.855-.2-1.243.006l-1.584.842.295-1.77a1.335 1.335 0 00-.39-1.18l-1.29-1.246 1.774-.267zm32.299-.23a1.327 1.327 0 00-1.074-.914L44.1 8.642l-.873-1.79a1.336 1.336 0 00-2.395-.011l-.89 1.781-1.97.277a1.327 1.327 0 00-1.083.904 1.327 1.327 0 00.332 1.37l1.418 1.396-.345 1.96a1.327 1.327 0 00.525 1.31 1.33 1.33 0 001.406.108l1.766-.918 1.757.934a1.331 1.331 0 001.407-.095c.416-.299.622-.798.538-1.303l-.328-1.964 1.432-1.382c.369-.356.5-.88.345-1.368zm-2.844 1.743a1.335 1.335 0 00-.39 1.18l.295 1.77-1.584-.842a1.335 1.335 0 00-1.243-.006l-1.592.828.311-1.768a1.335 1.335 0 00-.378-1.183l-1.28-1.259 1.778-.25a1.335 1.335 0 001.009-.725l.801-1.606.787 1.613c.193.395.567.67 1.002.736l1.774.266-1.29 1.246zM3.527 25.492h3.128a.733.733 0 100-1.467H3.527a.733.733 0 100 1.467z"/><path d="M9.779 25.491h4.97a1.46 1.46 0 011.46 1.46v12.516a.733.733 0 001.465 0v-11.58l1.037-2.183a4.237 4.237 0 012.172-2.084l.814-.345a.75.75 0 00.082-.042l4.966-2.891a.73.73 0 00.306-.346l1.319-3.094a1.43 1.43 0 011.322-.87c.98 0 1.856.586 2.229 1.494.151.368.228.757.228 1.155v3.414c0 .949-.2 1.867-.594 2.73l-.75 1.641c-.191.42-.157.901.092 1.288.25.388.673.62 1.134.62h2.399a.733.733 0 000-1.467h-2.214l.673-1.473a7.981 7.981 0 00.726-3.339v-3.414c0-.59-.114-1.167-.338-1.713a3.865 3.865 0 00-3.592-2.402 2.892 2.892 0 00-2.664 1.76l-1.224 2.871-4.716 2.746-.772.328a5.702 5.702 0 00-2.922 2.803l-.157.33a2.925 2.925 0 00-2.48-1.379H9.778a.733.733 0 100 1.466z"/></g><defs><clipPath id="clip0"><path fill="#fff" d="M0 0h50v50H0z"/></clipPath></defs></svg>