<svg width="40" height="40" fill="none" xmlns="http://www.w3.org/2000/svg"><g clip-path="url(#clip0)" fill="#1E3864"><path d="M1.562 16.106c0-2.212.542-4.299 1.61-6.202A.781.781 0 001.81 9.14 14.256 14.256 0 000 16.106c0 2.878.725 5.988 1.99 8.533 1.251 2.516 1.585 5.37.942 8.04L1.78 37.455a.781.781 0 001.519.367l1.152-4.777c.73-3.025.352-6.258-1.061-9.102-1.162-2.335-1.828-5.192-1.828-7.837zm38.018 6.918L21.398 13.56l18.18-9.463a.781.781 0 00-.721-1.386L27.396 8.677C24.74 4.283 20.054 1.58 14.999 1.58c-2.87 0-5.66.782-8.068 2.262a.781.781 0 00.818 1.331 13.838 13.838 0 017.25-2.03c4.473 0 8.627 2.38 11.008 6.257l-5.75 2.993a6.024 6.024 0 00-1.666-3.285 6.028 6.028 0 00-4.22-1.808A6.031 6.031 0 0010.05 9a6.023 6.023 0 00-1.843 4.258v7.171c0 .347.228.652.56.75l6.63 1.947a.78.78 0 001.002-.75v-1.925h1.027a2.327 2.327 0 002.325-2.325v-.733h.8a.78.78 0 00.746-1.01l-.407-1.326 7.92 4.123 1.532 4.99h-3.13a.781.781 0 00-.78.781v4.011a3.31 3.31 0 01-3.306 3.306h-4.788a.781.781 0 00-.77.647l-.801 4.59a.781.781 0 101.54.268l.687-3.943h4.132a4.874 4.874 0 004.868-4.868v-3.23H31.4a.781.781 0 00.747-1.01l-1.392-4.53 8.102 4.218a.778.778 0 001.054-.333.781.781 0 00-.333-1.053zM18.97 15.83a.781.781 0 00-.781.78v1.516c0 .42-.342.762-.762.762h-1.809a.781.781 0 00-.78.781v1.663L9.77 19.844V13.28a4.506 4.506 0 014.575-4.416c2.441.04 4.427 2.058 4.427 4.5 0 .078.012.156.035.23l.687 2.238h-.524zM4.596 7.487a.786.786 0 01-.781-.782.786.786 0 01.781-.782c.206 0 .407.084.552.23a.79.79 0 01.23.552.788.788 0 01-.23.553.787.787 0 01-.552.229z"/></g><defs><clipPath id="clip0"><path fill="#fff" d="M0 0h40v40H0z"/></clipPath></defs></svg>