<svg width="40" height="40" fill="none" xmlns="http://www.w3.org/2000/svg"><g clip-path="url(#clip0)" fill="#1E3864" stroke="#fff" stroke-width=".5"><path d="M22.956 1.397h0l15.57 15.568a4.152 4.152 0 011.224 2.957 4.151 4.151 0 01-1.225 2.956h0l-15.569 15.57h0A4.151 4.151 0 0120 39.671a4.151 4.151 0 01-2.956-1.225h0L1.474 22.878A4.152 4.152 0 01.25 19.922c0-1.118.435-2.167 1.225-2.957L17.044 1.397h0A4.151 4.151 0 0120 .172c1.117 0 2.166.434 2.956 1.225zm-1.304 35.745L37.22 21.574c.44-.441.684-1.029.684-1.652 0-.624-.244-1.211-.684-1.652L21.65 2.701A2.322 2.322 0 0020 2.017c-.624 0-1.21.243-1.652.684L2.78 18.271a2.322 2.322 0 00-.684 1.65c0 .624.244 1.212.684 1.653l15.57 15.568c.44.441 1.027.685 1.651.685.624 0 1.21-.244 1.652-.685z"/><path d="M19.113 12.01a.923.923 0 011.845 0v12.163a.923.923 0 11-1.845 0V12.009zm1.827 15.658h0a.93.93 0 00-.022-.087v-.002h0a.877.877 0 00-.03-.085l-.002-.003h0a.923.923 0 00-.083-.154v-.001h0a.975.975 0 00-.055-.074l.192.406zm0 0v.002m0-.002v.002m0 0a.853.853 0 01.014.267l.249.026m-.262-.293l-2.027.518m0 0a1.23 1.23 0 01-.045-.225m.045.225c.011.036.024.073.038.108l-.038-.108zm-.045-.225l.249-.026a.87.87 0 010-.179l-.25-.026m0 .231a1.123 1.123 0 010-.23m0 .23l.25-.026a.94.94 0 00.013.09v.003h0a.712.712 0 00.022.083v.002h0a1.105 1.105 0 00.069.167 1.065 1.065 0 00.1.15 1.245 1.245 0 00.127.127l.002.002h0a.9.9 0 00.316.169h.001a1.05 1.05 0 00.176.035h.002a.868.868 0 00.18 0h0a1.075 1.075 0 00.178-.035.905.905 0 00.245-.117.813.813 0 00.07-.052l.003-.002h0a.98.98 0 00.126-.126.95.95 0 00.138-.23l.002-.005h0a.817.817 0 00.052-.172v-.001h0a.904.904 0 00.014-.088l.249.026m-2.334-.23a1.217 1.217 0 01.084-.335m-.084.334l.249.026a.94.94 0 01.013-.09h0v-.004a.66.66 0 01.02-.08h0l.003-.005a.82.82 0 01.03-.086m-.232-.095l.23.099.002-.004m-.232-.095c.015-.035.032-.07.05-.103l-.05.103zm.232.095a1.17 1.17 0 01.038-.08m-.038.08l.038-.08m1.98.55a1.151 1.151 0 000-.23l-.084.563a1.077 1.077 0 00.067-.22c.008-.037.014-.075.018-.113zm-1.98-.55a.87.87 0 01.045-.076h0l.001-.001a1.15 1.15 0 01.054-.074 1.139 1.139 0 01.128-.128 1.07 1.07 0 01.152-.1h0a.97.97 0 01.082-.04h0a.754.754 0 01.083-.028h0l.005-.002a.663.663 0 01.08-.02h.003a.717.717 0 01.085-.014h.006a.87.87 0 01.18 0h.005a.717.717 0 01.084.013h.003a.717.717 0 01.083.022h.002c.031.01.059.02.083.03h0a1.01 1.01 0 01.235.14c.024.02.046.04.067.06l-1.466.218zm1.935.094a1.098 1.098 0 00-.147-.31l.147.31z"/></g><defs><clipPath id="clip0"><path fill="#fff" d="M0 0h40v40H0z"/></clipPath></defs></svg>