<svg width="40" height="40" fill="none" xmlns="http://www.w3.org/2000/svg"><path d="M32.5 18.303c.376 0 .681.305.681.681a6.157 6.157 0 01-6.15 6.15.681.681 0 010-1.362 4.793 4.793 0 004.788-4.788.68.68 0 01.681-.68zm-14.759 10.12l-.085-.135-.085.135a46.046 46.046 0 00-2.095 3.704c-.304.611-.564 1.19-.749 1.694-.183.502-.296.938-.296 1.257 0 1.838 1.499 3.46 3.225 3.46 1.727 0 3.225-1.622 3.225-3.46 0-.32-.112-.756-.296-1.257a17.425 17.425 0 00-.748-1.694 46.046 46.046 0 00-2.096-3.704zm-4.672 6.655c0-.56.22-1.327.565-2.18.344-.85.808-1.776 1.286-2.65a53.438 53.438 0 012.168-3.593.682.682 0 011.136 0c.206.31 1.213 1.846 2.169 3.593.477.874.941 1.8 1.285 2.65.346.853.566 1.62.566 2.18 0 2.617-2.107 4.822-4.588 4.822-2.48 0-4.587-2.205-4.587-4.822zM8.502 13.363h0a.68.68 0 011.12 0h0a58.97 58.97 0 012.595 4.137c.57 1.01 1.126 2.08 1.537 3.068.413.992.677 1.89.677 2.557a5.375 5.375 0 01-5.368 5.369 5.375 5.375 0 01-5.37-5.369c0-.667.265-1.565.678-2.557.411-.988.966-2.059 1.538-3.068a59.41 59.41 0 012.593-4.137zm.644 1.733l-.084-.128-.083.128c-.862 1.316-1.84 2.935-2.604 4.415-.382.74-.71 1.447-.944 2.065-.233.615-.375 1.152-.375 1.549a4.01 4.01 0 004.006 4.006 4.01 4.01 0 004.007-4.006c0-.397-.143-.934-.375-1.55a20.402 20.402 0 00-.944-2.065c-.763-1.48-1.742-3.099-2.604-4.414zm9.973 3.107a.681.681 0 11-1.363 0 .681.681 0 011.363 0z" fill="#1E3864" stroke="#fff" stroke-width=".2"/><path d="M18.714 14.974h0C20.927 9.104 26.23.771 26.457.414a.682.682 0 011.149 0c1.113 1.741 3.29 5.318 5.189 8.996.95 1.84 1.828 3.703 2.47 5.373.642 1.675 1.041 3.144 1.041 4.201 0 5.114-4.16 9.275-9.275 9.275-4.14 0-7.813-2.781-8.93-6.763a.682.682 0 011.312-.368l.096-.027-.096.027a7.937 7.937 0 007.618 5.769c4.363 0 7.913-3.55 7.913-7.913 0-.868-.327-2.083-.851-3.475-.526-1.395-1.253-2.979-2.063-4.59-1.62-3.22-3.575-6.556-4.912-8.717l-.085-.138-.085.138c-1.512 2.456-5.248 8.712-6.959 13.253a.681.681 0 01-.877.397h0a.68.68 0 01-.398-.878z" fill="#1E3864" stroke="#fff" stroke-width=".2"/></svg>