<svg width="40" height="40" fill="none" xmlns="http://www.w3.org/2000/svg"><g clip-path="url(#clip0)" fill="#1E3864"><path d="M39.463 15.076a1.835 1.835 0 00-2.996.601l-2.357 5.75-.264-.264a2.154 2.154 0 00-3.044 0l-1.783 1.784a4.583 4.583 0 01-2.644 1.298l-.037.005a3.993 3.993 0 00-3.404 3.984v7.261h-1.48a.547.547 0 00-.546.547v3.411a.547.547 0 00.547.547h9.839a.547.547 0 00.547-.547v-3.41a.547.547 0 00-.547-.548h-1.48v-4.781l3.478-1.357a6.526 6.526 0 002.255-1.474l.073-.072a6.597 6.597 0 001.601-2.613l2.717-8.348a1.843 1.843 0 00-.475-1.774zm-8.716 23.83H22V36.59h8.747v2.317zm8.142-22.373l-2.708 8.327a5.501 5.501 0 01-1.334 2.178l-.073.072a5.447 5.447 0 01-1.88 1.229l-3.825 1.492a.547.547 0 00-.348.51v5.154h-4.693v-7.261a2.903 2.903 0 012.485-2.903 5.68 5.68 0 003.28-1.61l1.783-1.784a1.084 1.084 0 011.496 0l.459.459-3.99 3.989a.544.544 0 000 .773.546.546 0 00.774 0l4.375-4.375a.496.496 0 00.031-.04.538.538 0 00.086-.137v-.004l2.672-6.508a.742.742 0 011.41.44zM18.546 35.495h-1.48v-7.26a3.993 3.993 0 00-3.402-3.985l-.037-.005a4.59 4.59 0 01-2.646-1.298l-1.783-1.783a2.154 2.154 0 00-3.044 0l-.264.264-2.357-5.75a1.835 1.835 0 00-3.469 1.174l2.715 8.347c.321.984.87 1.879 1.601 2.612l.073.073a6.524 6.524 0 002.256 1.473l3.477 1.357v4.782h-1.48a.547.547 0 00-.547.546v3.411a.547.547 0 00.547.547h9.84a.549.549 0 00.547-.547v-3.41a.547.547 0 00-.547-.547zm-7.615-5.663l-3.824-1.493a5.446 5.446 0 01-1.88-1.229l-.073-.072a5.5 5.5 0 01-1.335-2.178l-2.708-8.326a.745.745 0 01.872-.887.742.742 0 01.54.446L5.188 22.6v.004a.535.535 0 00.085.137l.031.04 4.375 4.375a.548.548 0 00.934-.387.548.548 0 00-.16-.387l-3.984-3.987.459-.458a1.084 1.084 0 011.496 0l1.784 1.783a5.7 5.7 0 003.31 1.614 2.898 2.898 0 012.455 2.9v7.261h-4.694V30.34a.547.547 0 00-.348-.51zm7.07 9.075H9.252v-2.318H18v2.318zm8.186-18.151a.548.548 0 00-.118-.596l-8.76-8.757 3.847-1.584A13.406 13.406 0 0025.5 6.938a.547.547 0 00-.23-.914l-.498-.147a4.12 4.12 0 001.353-3.043.548.548 0 00-.398-.527c.261-.55.398-1.15.398-1.76a.548.548 0 00-.844-.46l-5.84 3.74a3.636 3.636 0 00-.248-1.63.546.546 0 00-.483-.343 3.647 3.647 0 00-.254-1.51.546.546 0 00-.953-.116l-4.749 6.619-1.577-1.577a4.872 4.872 0 00-3.469-1.438 2.059 2.059 0 00-2.052 1.93 2.996 2.996 0 00-1.228 2.225l-.038.572a.546.546 0 00.996.347A2.737 2.737 0 016.963 7.81c.237.093.49.141.745.141A1.052 1.052 0 018.76 9v1.427a6.274 6.274 0 006.266 6.267 2.053 2.053 0 011.614.778l2.72 3.416a.547.547 0 00.427.206h5.893a.548.548 0 00.507-.338zM17.606 1.961a2.563 2.563 0 01-.695 1.503.548.548 0 00.407.93.547.547 0 00.384-.175l.656-.687a2.56 2.56 0 01-.28 1.17l-4.509 2.887 4.037-5.628zm2.445 18.04l-2.555-3.21a3.141 3.141 0 00-2.469-1.19 5.178 5.178 0 01-5.174-5.173V9A2.147 2.147 0 007.71 6.856a.964.964 0 110-1.929 3.787 3.787 0 012.694 1.116l2.66 2.659a.547.547 0 00.681.074l11.059-7.084a3.023 3.023 0 01-1.529 1.594l-.004.002a.547.547 0 00.455.993l1.161-.53a3.023 3.023 0 01-1.616 1.823.547.547 0 00.073 1.021l.691.204a12.322 12.322 0 01-3.296 2.008l-4.604 1.896a.547.547 0 00-.178.893L24.36 20h-4.308z"/></g><defs><clipPath id="clip0"><path fill="#fff" d="M0 0h40v40H0z"/></clipPath></defs></svg>