<svg width="40" height="40" fill="none" xmlns="http://www.w3.org/2000/svg"><g clip-path="url(#clip0)" fill="#1E3864"><path d="M36.757 14.607a6.585 6.585 0 00.433-2.342 6.57 6.57 0 00-6.562-6.562c-1.217 0-2.38.328-3.404.953a12.486 12.486 0 00-8.87-3.68c-6.911 0-12.533 5.622-12.533 12.532 0 .35.014.7.044 1.05l-.123-.002A5.749 5.749 0 000 22.298a5.749 5.749 0 005.742 5.743h11.583a.781.781 0 100-1.563H5.742a4.184 4.184 0 01-4.18-4.18 4.184 4.184 0 015.032-4.092 4.186 4.186 0 013.328 4.092.781.781 0 101.562 0 5.756 5.756 0 00-4.022-5.478 11.065 11.065 0 01-.079-1.312c0-6.049 4.921-10.97 10.97-10.97 5.73 0 10.536 4.472 10.942 10.18a.781.781 0 001.087.663 5.788 5.788 0 018.056 5.316 5.788 5.788 0 01-5.782 5.781h-8.203a.781.781 0 000 1.563h8.203c4.05 0 7.344-3.295 7.344-7.344a7.342 7.342 0 00-3.243-6.09zm-1.395-.737a7.306 7.306 0 00-2.706-.517c-.653 0-1.294.085-1.915.252a12.46 12.46 0 00-2.465-5.753 4.95 4.95 0 012.352-.587c2.757 0 5 2.243 5 5a4.93 4.93 0 01-.266 1.605z"/><path d="M21.517 26.707a.784.784 0 00-1.334.552.79.79 0 00.228.553.787.787 0 00.552.229.789.789 0 00.553-.23.786.786 0 000-1.104zM39.73 3.163a.781.781 0 00-1.104 0l-2.403 2.402a.782.782 0 001.105 1.105l2.403-2.402a.781.781 0 000-1.105zm-9.102-1.919a.781.781 0 00-.781.78v1.691a.781.781 0 101.562 0v-1.69a.781.781 0 00-.781-.781zm8.591 10.24h-.38a.781.781 0 000 1.563h.38a.781.781 0 100-1.563zM6.552 28.982a.781.781 0 00-1.105 0l-2.39 2.39a.781.781 0 101.105 1.104l2.39-2.39a.781.781 0 000-1.104zm10.13 0a.781.781 0 00-1.105 0l-2.374 2.374a.781.781 0 101.104 1.105l2.375-2.374a.781.781 0 000-1.105zm10.13 0a.781.781 0 00-1.105 0L23.36 31.33a.781.781 0 001.105 1.105l2.348-2.348a.781.781 0 000-1.105zM9.507 33.904a.781.781 0 00-1.105 0l-3.52 3.519a.781.781 0 001.105 1.105l3.52-3.52a.781.781 0 000-1.104zm10.13 0a.781.781 0 00-1.105 0l-3.519 3.519a.781.781 0 001.105 1.105l3.519-3.52a.781.781 0 000-1.104zm10.13 0a.781.781 0 00-1.104 0l-3.52 3.519a.781.781 0 001.105 1.105l3.52-3.52a.781.781 0 000-1.104zm7.175-4.922a.781.781 0 00-1.104 0l-2.322 2.322a.781.781 0 101.104 1.105l2.322-2.322a.781.781 0 000-1.105zM18.377 6.524h-.023a.781.781 0 100 1.563h.018a.781.781 0 00.005-1.563zm8.662 8.083a8.68 8.68 0 00-5.219-7.365.781.781 0 00-.622 1.433 7.122 7.122 0 014.282 6.043.781.781 0 101.559-.11z"/></g><defs><clipPath id="clip0"><path fill="#fff" d="M0 0h40v40H0z"/></clipPath></defs></svg>