<svg width="40" height="40" fill="none" xmlns="http://www.w3.org/2000/svg"><g clip-path="url(#clip0)" fill="#1E3864"><path d="M38.361 8.747h-1.876v-1.56a2.244 2.244 0 00-2.242-2.24h-1.788a2.244 2.244 0 00-2.241 2.24v6.42h-2.997v-1.724a2.27 2.27 0 00-2.268-2.268c-.492 0-.946.158-1.318.425a2.27 2.27 0 00-2.047-1.293 2.27 2.27 0 00-1.983 1.17 2.267 2.267 0 00-3.272.546 2.257 2.257 0 00-1.475-.547 2.27 2.27 0 00-2.268 2.268v1.423h-2.8v-1.653a.586.586 0 00-1.17 0v13.602c0 .59-.48 1.071-1.07 1.071h-1.79c-.59 0-1.07-.48-1.07-1.07V7.186c0-.59.48-1.07 1.07-1.07h1.789c.59 0 1.07.48 1.07 1.07v2.271a.586.586 0 101.172 0v-2.27a2.244 2.244 0 00-2.242-2.242H5.757a2.244 2.244 0 00-2.242 2.242v1.56H1.639A1.64 1.64 0 000 10.385v11.973a1.64 1.64 0 001.639 1.638h1.876v1.56a2.244 2.244 0 002.242 2.241h1.788a2.244 2.244 0 002.242-2.242v-6.418h2.006v1.069c0 .55.192 1.086.542 1.51l1.818 2.211v10.54a.585.585 0 101.171 0v-10.75a.586.586 0 00-.133-.372l-1.952-2.373a1.209 1.209 0 01-.275-.766v-1.07l11.074.069a.585.585 0 100-1.172h-2.664a.998.998 0 010-1.993h5.034c.346 0 .628.281.628.627v3.539c0 .279-.098.55-.275.766l-1.952 2.373a.585.585 0 00-.133.372v1.545a.586.586 0 001.17 0v-1.335l1.82-2.21c.348-.425.54-.962.54-1.511v-1.07h2.007v6.42a2.244 2.244 0 002.242 2.24h1.788a2.244 2.244 0 002.242-2.24v-1.56h1.876A1.64 1.64 0 0040 22.358V10.386a1.64 1.64 0 00-1.639-1.639zM1.64 22.826a.468.468 0 01-.468-.468V10.386c0-.258.21-.468.468-.468h1.876v12.908H1.639zm23.31-12.04c.605 0 1.097.492 1.097 1.097v2.18c0 .31-.131.6-.356.807h-1.483a1.096 1.096 0 01-.355-.807v-2.18c0-.605.492-1.097 1.097-1.097zm-4.462.23a1.098 1.098 0 012.194 0v3.047c0 .31-.132.6-.356.807h-.951a2.16 2.16 0 00-.471.052 1.091 1.091 0 01-.416-.859v-3.048zm-3.365.697a1.098 1.098 0 012.194 0v2.35a1.098 1.098 0 01-2.194 0v-2.35zm-3.365.471a1.098 1.098 0 012.194 0v1.88c0 .604-.492 1.096-1.097 1.096a1.098 1.098 0 01-1.097-1.097v-1.879zm-3.97 2.594h2.915a2.271 2.271 0 002.152 1.553c.667 0 1.267-.29 1.683-.749a2.262 2.262 0 002.98.338 2.154 2.154 0 00-.102 2.047H9.787v-3.19zm18.42 3.189v-1.299c0-.775-.494-1.438-1.184-1.69a2.02 2.02 0 00.078-.2h3.113v3.189h-2.007zm10.622 4.392c0 .257-.21.467-.468.467h-1.876v-1.692a.586.586 0 10-1.171 0v4.422c0 .59-.48 1.07-1.07 1.07h-1.789c-.59 0-1.07-.48-1.07-1.07V7.188c0-.59.48-1.07 1.07-1.07h1.788c.59 0 1.071.48 1.071 1.07v11.45a.586.586 0 101.171 0v-8.72h1.876c.258 0 .468.21.468.468v11.973z"/><path d="M25.261 27.172a.585.585 0 00-.585.586v6.71a.585.585 0 101.17 0v-6.71a.585.585 0 00-.585-.585z"/></g><defs><clipPath id="clip0"><path fill="#fff" d="M0 0h40v40H0z"/></clipPath></defs></svg>