<svg width="50" height="50" fill="none" xmlns="http://www.w3.org/2000/svg"><path d="M49.98 44.92l-1.266-4.44c-.26-.912-1.668-.51-1.409.4l.758 2.66-11.801-7.088a12.809 12.809 0 001.52-6.041c0-6.801-5.34-12.377-12.047-12.758V5.817l1.869 2.016c.649.701 1.714-.305 1.074-.995L25.54 3.45a.747.747 0 00-1.075 0l-3.137 3.388c-.644.694.43 1.69 1.074.995l1.868-2.016v11.837a12.751 12.751 0 00-5.85 1.801c-.812.489-.056 1.745.756 1.256a11.296 11.296 0 015.827-1.615c6.3 0 11.51 5.388 11.308 11.684-.336.8-1.685 1.628-3.646 2.232-.893.276-.436 1.668.432 1.4.939-.289 2.002-.703 2.886-1.269-1.225 4.923-5.683 8.583-10.98 8.583-5.298 0-9.756-3.66-10.98-8.584.833.534 1.822.93 2.697 1.211 2.3.738 5.24 1.144 8.283 1.144a33.02 33.02 0 003.692-.203c.941-.107.777-1.567-.165-1.456a31.718 31.718 0 01-3.527.194c-2.894 0-5.677-.382-7.836-1.074-1.862-.597-3.147-1.406-3.472-2.178a11.31 11.31 0 012.755-7.777c.62-.716-.486-1.676-1.107-.96-2.143 2.473-3.188 5.648-3.108 8.9a12.69 12.69 0 001.509 5.51L1.942 43.54l.758-2.66c.26-.91-1.15-1.312-1.409-.4L.026 44.92c-.114.399.164.87.61.929l4.472.913c.898.183 1.206-1.25.293-1.436l-2.677-.546 11.788-7.08c2.31 3.316 6.151 5.49 10.49 5.49 4.34 0 8.18-2.174 10.492-5.49l11.788 7.08-2.677.546c-.915.187-.593 1.617.293 1.436l4.472-.913c.357-.047.72-.52.61-.93z" fill="#1E3864"/></svg>