<svg width="40" height="40" fill="none" xmlns="http://www.w3.org/2000/svg"><path d="M36.883 35.044l-6.126-10.61a14.474 14.474 0 003.833-9.855c0-4.039-1.643-7.666-4.278-10.301S24.05 0 20.012 0c-4.04 0-7.667 1.643-10.302 4.278s-4.277 6.263-4.277 10.3c0 3.8 1.437 7.256 3.833 9.857L3.14 35.044a.834.834 0 00-.069.65c.137.377.548.548.924.41l4.894-1.95.753 5.236c.034.206.137.41.342.514.342.205.787.068.993-.274l6.194-10.712c.89.171 1.848.274 2.772.274.958 0 1.882-.103 2.772-.274l6.194 10.712c.206.342.65.445.993.273.205-.102.308-.307.342-.513l.753-5.236 4.894 1.95c.376.138.787-.033.924-.41.205-.24.17-.479.068-.65zM10.84 37.097l-.616-4.072a.758.758 0 00-.822-.616c-.068 0-.136.034-.205.068l-3.799 1.506 4.928-8.521a14.449 14.449 0 005.442 3.045l-4.928 8.59zm9.171-9.377A13.086 13.086 0 016.904 14.613c0-3.628 1.472-6.913 3.833-9.274a12.866 12.866 0 019.274-3.902A13.086 13.086 0 0133.12 14.545a13.09 13.09 0 01-3.833 9.274 12.866 12.866 0 01-9.275 3.901zm10.815 4.757a.486.486 0 00-.206-.068c-.376-.069-.753.205-.82.616l-.617 4.072-4.928-8.59a14.448 14.448 0 005.441-3.045l4.928 8.521-3.798-1.506z" fill="#1E3864"/><path d="M26.719 12.046a1.466 1.466 0 00-.616-.513c-.24-.103-.513-.171-.787-.137h-2.84l-.89-2.806a1.827 1.827 0 00-.787-.958 1.865 1.865 0 00-.753-.171c-.274 0-.514.068-.753.17-.377.206-.65.514-.787.959l-.89 2.806h-2.84c-.274-.034-.548.034-.788.137-.24.103-.445.274-.616.513-.274.377-.342.788-.274 1.198.069.41.274.787.65 1.061l2.396 1.711-.924 2.806c0 .035 0 .069-.034.069-.069.205-.069.445-.034.684.034.24.137.48.308.685.274.376.65.581 1.06.65.411.068.856-.034 1.198-.308l2.396-1.745 2.396 1.745c.376.274.787.342 1.197.308a1.61 1.61 0 001.061-.65c.171-.206.24-.445.308-.685.034-.24.034-.445-.034-.684 0-.034 0-.069-.034-.069l-.924-2.806 2.395-1.711c.377-.274.582-.65.65-1.06-.034-.377-.136-.822-.41-1.199zm-1.198 1.096l-.034.034-2.772 2.019c-.24.17-.377.513-.274.787l1.061 3.251v.137c0 .034 0 .068-.034.068-.034.035-.069.069-.137.069-.034 0-.103 0-.137-.034l-2.806-2.054a.688.688 0 00-.445-.137.753.753 0 00-.445.137l-2.806 2.054c-.034.034-.103.034-.137.034a.26.26 0 01-.137-.069c-.034-.034-.034-.068-.034-.068v-.137l1.06-3.251a.653.653 0 00-.273-.787l-2.635-2.02-.034-.034c-.035-.034-.069-.068-.069-.102 0-.034 0-.103.034-.137 0 0 0-.034.034-.034.035-.034.035-.034.069-.034s.068-.035.103-.035h3.456a.73.73 0 00.685-.513L19.874 9c0-.035.035-.103.103-.103.034 0 .069-.034.069-.034.034 0 .068 0 .068.034l.103.103 1.06 3.285c.103.274.377.513.685.513h3.458c.034 0 .068 0 .102.035.034 0 .034.034.069.034 0 0 0 .034.034.034.034.034.034.068.034.137a.47.47 0 00-.137.103z" fill="#1E3864"/><path d="M28.054 6.537a11.326 11.326 0 00-8.043-3.32 11.326 11.326 0 00-8.042 3.32 11.326 11.326 0 00-3.32 8.042c0 3.148 1.267 5.989 3.32 8.042a11.326 11.326 0 008.042 3.32c3.149 0 5.99-1.267 8.043-3.32a11.326 11.326 0 003.32-8.042c0-3.149-1.267-5.99-3.32-8.042zm-.993 15.057a9.933 9.933 0 01-7.05 2.91 9.935 9.935 0 01-7.015-2.91 9.853 9.853 0 01-2.91-7.015 9.935 9.935 0 012.91-7.016A9.823 9.823 0 0120.01 4.62a9.935 9.935 0 017.016 2.909 9.853 9.853 0 012.909 7.016c0 2.737-1.095 5.27-2.875 7.05z" fill="#1E3864"/></svg>