<svg width="40" height="40" fill="none" xmlns="http://www.w3.org/2000/svg"><path d="M39.414 20.536h-.883l-3.648-8.422c.364-.323.593-.794.593-1.317 0-.971-.79-1.761-1.76-1.761-.498 0-.947.207-1.267.54A30.078 30.078 0 0023.55 7.08a3.75 3.75 0 00-1.958-2.704v-1.15c0-.814-.662-1.476-1.476-1.476h-.512c-.815 0-1.477.663-1.477 1.477v1.149a3.75 3.75 0 00-1.96 2.718 30.09 30.09 0 00-8.669 2.429 1.754 1.754 0 00-1.214-.488 1.76 1.76 0 00-1.168 3.078L1.47 20.536H.586a.586.586 0 00-.586.586v.764a4.454 4.454 0 004.449 4.449H8.12a4.454 4.454 0 004.45-4.449v-.764a.586.586 0 00-.587-.586H11.1l-3.648-8.422c.208-.185.372-.418.475-.682h9.585V29.49h-.358c-2.289 0-4.448 1.766-4.448 4.645a1.525 1.525 0 00-1.308 1.506v1.084c0 .84.683 1.524 1.523 1.524h5.572a.586.586 0 100-1.172h-5.572a.356.356 0 01-.351-.352v-1.084c0-.19.16-.351.351-.351h13.88c.19 0 .351.16.351.351v1.084a.356.356 0 01-.352.352h-5.572a.586.586 0 100 1.172H26.8c.84 0 1.524-.684 1.524-1.524v-1.084c0-.767-.57-1.401-1.308-1.506 0-2.854-2.138-4.645-4.449-4.645h-.358v-7a.586.586 0 10-1.171 0v7h-2.354V11.245a3.708 3.708 0 002.354 0v8.51a.586.586 0 101.171 0v-8.323h9.864c.103.264.267.497.475.682L28.9 20.536h-.883a.586.586 0 00-.586.586v.764a4.454 4.454 0 004.449 4.45h3.671A4.454 4.454 0 0040 21.885v-.764a.586.586 0 00-.586-.586zM6.284 10.208c.327 0 .602.27.588.614v.012a.59.59 0 01-.587.552.59.59 0 010-1.178zm5.114 11.5c0 2.174-1.602 3.455-3.278 3.455H4.45c-1.68 0-3.277-1.284-3.277-3.455h10.226zm-1.575-1.172H2.747l3.456-7.98c.054.003.116.002.163 0l3.457 7.98zM8.745 10.26a28.912 28.912 0 017.42-1.985c.116.73.445 1.425.975 1.985H8.745zM19.3 3.228c0-.168.136-.305.304-.305h.513c.168 0 .304.137.304.305v.764a4.001 4.001 0 00-.56-.042c-.172 0-.383.015-.561.042v-.764zm3.267 27.434c1.68 0 3.277 1.285 3.277 3.456H13.877c0-2.174 1.602-3.456 3.277-3.456h5.413zM19.86 10.26a2.57 2.57 0 01-2.568-2.626V7.63a2.573 2.573 0 011.727-2.366c1.677-.583 3.41.682 3.41 2.427a2.571 2.571 0 01-2.57 2.569zm2.72 0a3.76 3.76 0 00.977-1.999 28.9 28.9 0 017.531 1.999H22.58zm10.547.562a.588.588 0 110 .012v-.012zm.505 1.734h.001c.053.002.105.003.163 0l3.456 7.98h-7.076l3.456-7.98zm1.918 12.607h-3.67c-1.68 0-3.277-1.285-3.277-3.455h10.225c0 2.174-1.602 3.455-3.277 3.455z" fill="#1E3864"/><path d="M19.86 5.958c-.955 0-1.732.777-1.732 1.733 0 .955.777 1.732 1.733 1.732.955 0 1.732-.777 1.732-1.732 0-.956-.777-1.733-1.732-1.733zm0 2.293a.561.561 0 11.002-1.122.561.561 0 01-.001 1.122z" fill="#1E3864"/></svg>