<svg width="40" height="40" fill="none" xmlns="http://www.w3.org/2000/svg"><g clip-path="url(#clip0)" fill="#1E3864"><path d="M22.267 29.867a.667.667 0 00.85-.042l8-7.334a.667.667 0 10-.9-.982l-7.593 6.958L20.4 26.8a.667.667 0 00-.8 1.067l2.667 2z"/><path d="M.667 10a5.044 5.044 0 013.642 1.965C1.747 16.473.303 20.744.035 24.66a14.603 14.603 0 003.718 10.733A13.68 13.68 0 0013.977 40a13.961 13.961 0 009.867-4.097c2.394.364 4.84-.123 6.913-1.374l4.69 4.689a2.667 2.667 0 003.769-3.77l-4.689-4.689a10.656 10.656 0 00-9.183-16.093c-.09 0-.177.011-.267.013A57.604 57.604 0 0014.933.395 1.333 1.333 0 0013.985 0h-.009a1.314 1.314 0 00-.933.4A57.823 57.823 0 008.41 5.785 10.825 10.825 0 017.333.667.667.667 0 106 .667c0 7.846-5.107 8-5.333 8a.667.667 0 100 1.333zm37.608 26.391a1.333 1.333 0 01-1.884 1.884l-4.509-4.509a10.72 10.72 0 001.884-1.884l4.51 4.51zm-3.588-11.047A9.344 9.344 0 1125.344 16a9.354 9.354 0 019.343 9.344zm-20.7-24.007a56.53 56.53 0 019.672 13.476 10.667 10.667 0 00-1.392 20.752 12.595 12.595 0 01-8.712 3.096 12.358 12.358 0 01-8.812-4.158 13.267 13.267 0 01-3.378-9.751c.241-3.528 1.507-7.385 3.741-11.473.634 1.49.939 3.101.894 4.721a.667.667 0 101.333 0c0-7.855 5.119-8 5.334-8a.667.667 0 000-1.333 5.044 5.044 0 01-2.61-.958 5.255 5.255 0 01-.84-.782 57.022 57.022 0 014.77-5.59zm-7.32 3.786A8.128 8.128 0 007.779 7.27a.5.5 0 00.033.05 6.65 6.65 0 002.4 2.012 7.073 7.073 0 00-3.545 4.211 8.198 8.198 0 00-.987-1.96.619.619 0 00-.08-.117 6.675 6.675 0 00-2.479-2.134 7.073 7.073 0 003.546-4.21z"/><path d="M12.12 35.344c-6.732-1.224-7.43-8.427-7.453-8.733a.669.669 0 10-1.334.111c.008.085.8 8.525 8.546 9.933a.667.667 0 10.24-1.311z"/></g><defs><clipPath id="clip0"><path fill="#fff" d="M0 0h40v40H0z"/></clipPath></defs></svg>