<svg width="40" height="40" fill="none" xmlns="http://www.w3.org/2000/svg"><path d="M33.124 25.649a.54.54 0 01-.496-.757c.191-.447.378-.925.565-1.463a.539.539 0 01.879-.236.543.543 0 01.14.594c-.196.56-.39 1.062-.59 1.531a.541.541 0 01-.498.331z" fill="#1E3864"/><path d="M20 38.919a.542.542 0 01-.217-.045A25.636 25.636 0 014.362 15.351V8.184a.54.54 0 01.648-.53c3.921.803 11.71-1.302 14.518-6.297a.562.562 0 01.943 0c2.81 4.995 10.595 7.1 14.518 6.297a.541.541 0 01.649.53v7.167c0 1.53-.136 3.057-.41 4.562a.54.54 0 11-1.063-.194c.261-1.441.392-2.903.391-4.368V8.82C30.32 9.351 23.218 7.333 20 2.643 16.782 7.333 9.684 9.35 5.443 8.819v6.532A24.554 24.554 0 0020 37.787a24.257 24.257 0 007.68-5.394.54.54 0 01.78.748 25.362 25.362 0 01-8.244 5.733.542.542 0 01-.216.045z" fill="#1E3864"/><path d="M30.513 30.346a.534.534 0 01-.46-.258.54.54 0 01.023-.602c.303-.419.588-.852.848-1.29a.54.54 0 11.93.554c-.277.465-.58.926-.903 1.37a.54.54 0 01-.438.226zM20 35.057a.54.54 0 01-.247-.06A21.883 21.883 0 017.838 15.46v-3.724a.54.54 0 01.5-.54A19.667 19.667 0 0019.64 6.55a.54.54 0 01.72 0 19.665 19.665 0 0011.302 4.645.54.54 0 01.5.54v3.723a21.883 21.883 0 01-11.914 19.538.54.54 0 01-.248.06zM8.92 12.23v3.23A20.805 20.805 0 0020 33.907 20.805 20.805 0 0031.081 15.46v-3.23a20.89 20.89 0 01-11.08-4.56 20.89 20.89 0 01-11.082 4.56z" fill="#1E3864"/><path d="M23.352 25.09a.549.549 0 01-.252-.062L20 23.399l-3.097 1.628a.54.54 0 01-.785-.57l.592-3.449-2.506-2.443a.54.54 0 01.3-.92l3.463-.502 1.549-3.136a.562.562 0 01.969 0l1.549 3.138 3.462.504a.54.54 0 01.3.918l-2.506 2.444.592 3.449a.54.54 0 01-.533.632l.003-.002zM20 22.248a.54.54 0 01.252.062l2.378 1.251-.455-2.649a.54.54 0 01.155-.478l1.926-1.877-2.66-.386a.54.54 0 01-.407-.296L20 15.463l-1.19 2.411a.54.54 0 01-.406.296l-2.66.387 1.924 1.875a.54.54 0 01.155.479l-.454 2.648 2.378-1.25a.535.535 0 01.253-.061z" fill="#1E3864"/></svg>