<svg width="40" height="40" fill="none" xmlns="http://www.w3.org/2000/svg"><g clip-path="url(#clip0)" fill="#1E3864"><path d="M28.632 4.573C26.608 2.666 23.138 2.23 20 5.37c-3.134-3.136-6.608-2.703-8.632-.797a5.717 5.717 0 00-.127 8.207L20 21.54l8.758-8.758a5.717 5.717 0 00-.126-8.208zm-.961 7.119L20 19.364l-7.67-7.67a4.175 4.175 0 01.093-6c.735-.696 1.72-1.078 2.772-1.078 2.203 0 3.194 1.317 4.805 2.928 1.568-1.568 2.577-2.928 4.805-2.928 1.052 0 2.037.382 2.773 1.076a4.175 4.175 0 01.093 6zm9.7-7.076a2.62 2.62 0 00-2.615 2.363l-.974 9.617c-.47.1-.9.328-1.234.662l-7.77 7.234a5.225 5.225 0 00-1.7 3.815v8.617h9.23v-4.055c0-.627.263-1.236.74-1.688l5.838-5.892A3.827 3.827 0 0040 22.58V7.246c0-1.45-1.18-2.63-2.629-2.63zm1.09 17.965c0 .612-.236 1.19-.669 1.626l-5.82 5.874a3.852 3.852 0 00-1.203 2.788v2.517h-6.153v-7.07a3.676 3.676 0 011.204-2.689l7.796-7.26a.976.976 0 01.798-.282.985.985 0 01.91.99.984.984 0 01-.268.681L29.054 25.2l1.034 1.139 6.03-5.47a2.52 2.52 0 00.744-1.795c0-.678-.263-1.315-.743-1.794a2.456 2.456 0 00-.805-.543l.97-9.6a1.092 1.092 0 012.177.11V22.58zm-23.238 1.911l-7.77-7.234a2.458 2.458 0 00-1.235-.662L5.245 6.98a2.619 2.619 0 00-2.616-2.363A2.632 2.632 0 000 7.246V22.58a3.82 3.82 0 001.114 2.706l5.838 5.892c.477.453.74 1.063.74 1.69v4.055h9.231v-8.617a5.221 5.221 0 00-1.7-3.815zm.162 10.893H9.23V32.87a3.855 3.855 0 00-1.203-2.788l-5.82-5.874a2.297 2.297 0 01-.67-1.626V7.246a1.092 1.092 0 012.177-.113l.971 9.6a2.51 2.51 0 00-.804.543 2.52 2.52 0 00-.744 1.794c0 .679.265 1.316.745 1.796l6.03 5.469 1.033-1.139-6.001-5.443a.975.975 0 01-.268-.681c0-.268.105-.519.294-.708a.98.98 0 01.615-.282.98.98 0 01.799.282l7.795 7.26a3.676 3.676 0 011.205 2.69v7.072z"/></g><defs><clipPath id="clip0"><path fill="#fff" d="M0 0h40v40H0z"/></clipPath></defs></svg>