<svg width="50" height="50" fill="none" xmlns="http://www.w3.org/2000/svg"><g clip-path="url(#clip0)" fill="#1E3864"><path d="M19.508 43.03a11.421 11.421 0 01-8.063-10.96c0-2.47.773-4.825 2.237-6.808a.978.978 0 10-1.586-1.149 13.33 13.33 0 00-2.61 7.957c0 2.923.924 5.703 2.67 8.038a13.545 13.545 0 006.77 4.79.975.975 0 001.226-.643.979.979 0 00-.644-1.226z"/><path d="M44.604 22.879a8.62 8.62 0 00-1.68-5.137l-6.197-9.2a.979.979 0 00-1.624 0l-2.612 3.877L24.416.432a.979.979 0 00-1.624 0L8.931 21.01a18.068 18.068 0 00-3.535 10.783C5.396 41.832 13.564 50 23.604 50s18.209-8.168 18.209-18.208c0-.802-.054-1.605-.158-2.395a8.67 8.67 0 002.95-6.518zm-8.69-12.038l5.386 7.995.034.049a6.677 6.677 0 011.312 3.994 6.739 6.739 0 01-6.731 6.731 6.739 6.739 0 01-6.732-6.731 6.676 6.676 0 011.345-4.041l2.773-4.117.015-.023 2.599-3.857zm3.94 20.95c0 8.961-7.29 16.25-16.25 16.25s-16.25-7.289-16.25-16.25a16.123 16.123 0 013.203-9.691L23.604 2.73l7.707 11.44-2.406 3.572a8.62 8.62 0 00-1.68 5.136c0 4.791 3.898 8.69 8.69 8.69a8.636 8.636 0 003.898-.926c.027.382.041.766.041 1.149z"/><path d="M32.463 22.64c0-.474.096-.932.287-1.36a.979.979 0 10-1.79-.796 5.274 5.274 0 00-.456 2.156c0 1.777.883 3.429 2.362 4.418a.978.978 0 101.089-1.628 3.352 3.352 0 01-1.492-2.79zM23.14 44.386c-.24-.63-1.134-.81-1.597-.318-.551.534-.254 1.515.501 1.652.75.164 1.403-.631 1.096-1.334zM35.399 27.95c.631.438 1.535-.046 1.522-.813.015-.768-.891-1.252-1.522-.815-.572.358-.574 1.271 0 1.628z"/></g><defs><clipPath id="clip0"><path fill="#fff" d="M0 0h50v50H0z"/></clipPath></defs></svg>