<svg width="40" height="40" fill="none" xmlns="http://www.w3.org/2000/svg"><g clip-path="url(#clip0)" fill="#1E3864"><path d="M32.5 27.209v-5.875l-.534-9.089c-.146-2.496-1.525-2.869-2.335-2.869a3.06 3.06 0 00-1.6.46l-.591-4.43c-.29-2.17-1.64-2.772-2.708-2.63-1.145.154-2.272 1.136-2.787 2.496l-.89-2.982C20.57.674 19.534.204 18.96.068c-.972-.23-2.051.132-2.818.946-.917.973-1.215 2.384-.797 3.774l2.488 8.278c-1.438-.308-2.7.367-4.186 1.57-1.643 1.33-4.294 2.726-4.914 3.026-.646.314-.983 1.024-.88 1.853.064.504.302 1.064.714 1.521a2.726 2.726 0 00-.734.721c-.422.63-.446 1.341-.065 1.901.11.162.237.321.372.49.435.543 1.03 1.287 1.612 2.842.83 2.213 2.255 3.208 3.401 4.007 1.09.76 1.862 1.3 2.068 2.617a.78.78 0 00-.65.77v4.835c0 .431.35.781.781.781h15.715c.431 0 .781-.35.781-.781v-4.835a.78.78 0 00-.66-.771c.1-.842.345-1.703.6-2.603.35-1.227.712-2.496.712-3.801zm-2.214 11.229H16.134v-3.273h3.56a.781.781 0 000-1.563h-2.897c-.247-2.141-1.517-3.027-2.749-3.887-1.068-.745-2.173-1.516-2.832-3.274-.67-1.788-1.383-2.68-1.855-3.27a7.031 7.031 0 01-.298-.389c.003-.039.05-.183.254-.359a1.752 1.752 0 011.481-.363c1.137.238 1.468.689 1.97 1.37.455.618 1.021 1.387 2.249 2.028.87.455 1.602.785 2.429.563.781-.21 1.46-.874 2.37-1.95.72-.853.814-1.827.273-2.817-.417-.764-1.16-1.479-2.016-2.268-1.39-1.28-2.878-.39-4.074.325-1.1.658-2.236 1.338-3.61 1.056-.621-.128-.861-.64-.92-.795-.103-.27-.07-.46-.044-.508.814-.396 3.483-1.818 5.206-3.213 1.962-1.588 2.755-1.572 4.005-.729.356.24.675.346.932.43.338.113.582.193.988.586a.781.781 0 001.087-1.123c-.663-.641-1.174-.81-1.585-.946a3.479 3.479 0 01-.327-.12l-2.888-9.61c-.368-1.225.183-1.984.437-2.253.385-.409.891-.6 1.32-.497.546.129.822.696.957 1.149l3.152 10.555c.192.69.553 1.165.87 1.584.43.567.8 1.056.904 2.142a.781.781 0 101.556-.148c-.146-1.528-.738-2.31-1.214-2.938-.28-.368-.5-.66-.612-1.063l-.004-.017-.394-1.32-.573-4.281c-.213-1.594.88-2.816 1.697-2.926.633-.084.867.654.952 1.288l1.852 13.857a.782.782 0 001.548-.207l-.96-7.186c-.041-.285.095-.514.217-.655a1.465 1.465 0 011.083-.483c.225 0 .694 0 .775 1.398l.532 9.066v5.805c0 1.087-.316 2.197-.651 3.373-.28.981-.566 1.99-.67 3.02h-2.891a.781.781 0 000 1.563h3.56v3.273zm-17.1-16.919c.591-.254 1.127-.575 1.615-.867 1.324-.792 1.748-.946 2.214-.517 1.947 1.795 2.113 2.327 1.606 2.928-.553.655-1.173 1.34-1.58 1.449-.258.07-.625-.086-1.3-.439-.908-.474-1.3-1.006-1.714-1.57-.24-.325-.493-.669-.841-.984z"/><path d="M23.21 33.602a.781.781 0 10-.002 1.562.781.781 0 00.002-1.562z"/></g><defs><clipPath id="clip0"><path fill="#fff" d="M0 0h40v40H0z"/></clipPath></defs></svg>