<svg width="20" height="20" viewBox="0 0 20 20" fill="none" xmlns="http://www.w3.org/2000/svg">
<g clip-path="url(#clip0)">
<path d="M10.3079 19.0035L19.873 9.43825C19.9546 9.35657 20.0002 9.24582 20 9.13043V1.30435C20.0004 1.06422 19.8061 0.869223 19.566 0.868775C19.4502 0.868571 19.3391 0.91455 19.2574 0.99652L9.99999 10.2548L0.742641 0.99652C0.573076 0.826506 0.297779 0.82618 0.127766 0.995745C0.0457954 1.07751 -0.000183105 1.18858 2.09808e-05 1.30435V9.13043C-0.000183105 9.24582 0.0454693 9.35657 0.126991 9.43825L9.69221 19.0035C9.86177 19.1735 10.1371 19.1738 10.3071 19.0043C10.3073 19.004 10.3076 19.0037 10.3079 19.0035Z" fill="#212121"/>
</g>
<defs>
<clipPath id="clip0">
<rect width="20" height="20" fill="white" transform="translate(20) rotate(90)"/>
</clipPath>
</defs>
</svg>
