<svg width="40" height="40" viewBox="0 0 40 40" fill="none" xmlns="http://www.w3.org/2000/svg">
<g clip-path="url(#clip0)">
<path d="M15.865 20.2289C15.5604 19.9234 15.065 19.9234 14.7604 20.2289C14.4549 20.5335 14.4549 21.0289 14.7604 21.3335C15.065 21.639 15.5604 21.639 15.865 21.3335C16.1705 21.0289 16.1705 20.5335 15.865 20.2289Z" fill="#1E3864"/>
<path d="M20 21.5625C18.7077 21.5625 17.6562 22.6139 17.6562 23.9062C17.6562 25.1986 18.7077 26.25 20 26.25C21.2923 26.25 22.3438 25.1986 22.3438 23.9062C22.3438 22.6139 21.2923 21.5625 20 21.5625ZM20 24.6875C19.5692 24.6875 19.2188 24.337 19.2188 23.9062C19.2188 23.4755 19.5692 23.125 20 23.125C20.4308 23.125 20.7812 23.4755 20.7812 23.9062C20.7812 24.337 20.4308 24.6875 20 24.6875Z" fill="#1E3864"/>
<path d="M20 17.6562C19.1267 17.6562 18.2823 17.8327 17.4903 18.1809C17.0953 18.3545 16.9159 18.8155 17.0895 19.2105C17.263 19.6055 17.7241 19.7848 18.1191 19.6113C18.7116 19.3509 19.3445 19.2188 20 19.2188C22.5847 19.2188 24.6875 21.3216 24.6875 23.9062C24.6875 26.4909 22.5847 28.5938 20 28.5938C17.4153 28.5938 15.3125 26.4909 15.3125 23.9062C15.3125 23.8795 15.3124 23.8534 15.313 23.8267C15.323 23.3954 14.9815 23.0376 14.5502 23.0276C14.1181 23.0168 13.761 23.3591 13.751 23.7905C13.7501 23.8294 13.75 23.8673 13.75 23.9062C13.75 27.3525 16.5538 30.1562 20 30.1562C23.4462 30.1562 26.25 27.3525 26.25 23.9062C26.25 20.46 23.4462 17.6562 20 17.6562Z" fill="#1E3864"/>
<path d="M20 5.9375C19.5685 5.9375 19.2188 6.28727 19.2188 6.71875V11.4062C19.2188 11.8377 19.5685 12.1875 20 12.1875C20.4315 12.1875 20.7812 11.8377 20.7812 11.4062V6.71875C20.7812 6.28727 20.4315 5.9375 20 5.9375Z" fill="#1E3864"/>
<path d="M11.2718 11.7295L7.95775 8.41545C7.65268 8.11038 7.15799 8.11038 6.85283 8.41545C6.54775 8.72053 6.54775 9.21522 6.85283 9.52038L10.1669 12.8344C10.472 13.1395 10.9667 13.1396 11.2718 12.8344C11.5769 12.5294 11.5769 12.0347 11.2718 11.7295Z" fill="#1E3864"/>
<path d="M33.1468 8.41545C32.8417 8.11038 32.347 8.11038 32.0419 8.41545L28.7278 11.7295C28.4228 12.0346 28.4228 12.5293 28.7278 12.8344C29.0328 13.1395 29.5276 13.1396 29.8328 12.8344L33.1468 9.52038C33.4519 9.2153 33.4519 8.72061 33.1468 8.41545Z" fill="#1E3864"/>
<path d="M39.8043 24.0398C34.8414 18.4212 27.4723 13.75 20 13.75C12.5266 13.75 5.15765 18.4223 0.195696 24.0398C-0.0899288 24.3633 -0.0593038 24.857 0.264056 25.1426C0.587493 25.4282 1.08124 25.3976 1.36679 25.0742C1.53327 24.8857 1.70382 24.6979 1.87656 24.5112C5.7371 30.3444 12.7354 34.0625 20 34.0625C27.2646 34.0625 34.2629 30.3444 38.1234 24.5112C38.2962 24.698 38.4667 24.8858 38.6332 25.0742C38.9179 25.3966 39.4116 25.4291 39.7359 25.1426C40.0593 24.857 40.0899 24.3632 39.8043 24.0398ZM20 32.5C13.1316 32.5 6.5257 28.9313 2.99304 23.3609C5.77648 20.6335 12.2079 15.3125 20 15.3125C27.7922 15.3125 34.2235 20.6335 37.0069 23.3609C33.4743 28.9313 26.8684 32.5 20 32.5Z" fill="#1E3864"/>
</g>
<defs>
<clipPath id="clip0">
<rect width="40" height="40" fill="white"/>
</clipPath>
</defs>
</svg>
