<svg width="40" height="40" viewBox="0 0 40 40" fill="none" xmlns="http://www.w3.org/2000/svg">
<g clip-path="url(#clip0)">
<path d="M28.6323 4.57321C26.6077 2.66551 23.1384 2.23013 20 5.36859C16.8661 2.23321 13.3923 2.66551 11.3677 4.57167C9.00919 6.79167 8.96766 10.5055 11.2415 12.7794L20 21.5394L28.7584 12.7809C31.0323 10.5071 30.9907 6.79321 28.6323 4.57321ZM27.6707 11.6917L20 19.364L12.3292 11.6932C10.6646 10.0271 10.6969 7.31782 12.423 5.69321C13.1584 4.99782 14.143 4.61628 15.1953 4.61628C17.3984 4.61628 18.3892 5.93321 20 7.54398C21.5677 5.97628 22.5769 4.61628 24.8046 4.61628C25.8569 4.61628 26.8415 4.99782 27.5784 5.69167C29.3 7.31321 29.34 10.0224 27.6707 11.6917Z" fill="#1E3864"/>
<path d="M37.371 4.61627C36.0156 4.61627 34.891 5.63166 34.7556 6.97935L33.7818 16.5963C33.3125 16.6963 32.8818 16.924 32.5479 17.2578L24.7771 24.4917C23.7079 25.4655 23.0879 26.8547 23.0771 28.307V36.924H32.3079V32.8686C32.3079 32.2424 32.571 31.6332 33.0479 31.1809L38.8864 25.2886C39.6048 24.5624 40.0002 23.6009 40.0002 22.5809V7.2455C40.0002 5.79627 38.8202 4.61627 37.371 4.61627ZM38.4618 22.5809C38.4618 23.1932 38.2248 23.7701 37.7925 24.207L31.9725 30.0809C31.2079 30.804 30.7695 31.8193 30.7695 32.8686V35.3855H24.6156V28.3163C24.6233 27.2963 25.0587 26.3193 25.8202 25.627L33.6156 18.367C33.8248 18.1578 34.111 18.0547 34.4141 18.0855C34.5818 18.1009 34.8233 18.1609 35.0295 18.367C35.2187 18.5563 35.3233 18.8086 35.3233 19.0747C35.3233 19.3409 35.2172 19.5932 35.0556 19.7563L29.0541 25.1993L30.0879 26.3378L36.1172 20.8686C36.5972 20.3886 36.8618 19.7517 36.8618 19.0732C36.8618 18.3947 36.5987 17.7578 36.1187 17.2793C35.8848 17.0424 35.6125 16.8609 35.3141 16.7363L36.2848 7.13627C36.3418 6.57627 36.8095 6.15473 37.371 6.15473C37.9725 6.15473 38.4618 6.64396 38.4618 7.2455V22.5809Z" fill="#1E3864"/>
<path d="M15.2231 24.4917L7.45231 17.2578C7.11846 16.924 6.68769 16.6947 6.21846 16.5963L5.24462 6.97935C5.10923 5.63166 3.98462 4.61627 2.62923 4.61627C1.18 4.61627 0 5.79627 0 7.2455V22.5809C0 23.6009 0.395385 24.5624 1.11385 25.287L6.95231 31.1793C7.42923 31.6317 7.69231 32.2424 7.69231 32.8686V36.924H16.9231V28.307C16.9138 26.8547 16.2923 25.467 15.2231 24.4917ZM15.3846 35.3855H9.23077V32.8686C9.23077 31.8209 8.79231 30.804 8.02769 30.0809L2.20769 24.207C1.77538 23.7701 1.53846 23.1932 1.53846 22.5809V7.2455C1.53846 6.64396 2.02769 6.15473 2.62923 6.15473C3.19077 6.15473 3.65846 6.57627 3.71538 7.13319L4.68615 16.7332C4.38769 16.8593 4.11538 17.0409 3.88154 17.2763C3.40308 17.7547 3.13846 18.3917 3.13846 19.0701C3.13846 19.7486 3.40308 20.3855 3.88308 20.8655L9.91231 26.3347L10.9462 25.1963L4.94462 19.7532C4.78154 19.5901 4.67692 19.3393 4.67692 19.0717C4.67692 18.804 4.78154 18.5532 4.97077 18.364C5.17538 18.1578 5.41846 18.0978 5.58615 18.0824C5.89077 18.0532 6.17538 18.1547 6.38462 18.364L14.18 25.624C14.9415 26.3163 15.3769 27.2932 15.3846 28.3132V35.3855Z" fill="#1E3864"/>
</g>
<defs>
<clipPath id="clip0">
<rect width="40" height="40" fill="white"/>
</clipPath>
</defs>
</svg>
