<svg width="50" height="50" viewBox="0 0 50 50" fill="none" xmlns="http://www.w3.org/2000/svg">
<g clip-path="url(#clip0)">
<path d="M19.5078 43.0291C14.6851 41.5295 11.4449 37.1255 11.4449 32.0701C11.4449 29.5991 12.2184 27.2449 13.6821 25.262C13.7155 25.2168 13.7456 25.1673 13.7708 25.117C14.0126 24.6334 13.8162 24.0461 13.3325 23.8043C12.8948 23.585 12.3712 23.7258 12.0965 24.113C10.3892 26.4322 9.48682 29.1834 9.48682 32.0701C9.48682 34.9935 10.4099 37.773 12.1562 40.1079C13.8441 42.3647 16.2484 44.0663 18.9264 44.8989C19.0232 44.9291 19.1211 44.9433 19.2174 44.9433C19.6348 44.9433 20.0216 44.6742 20.152 44.2547C20.3126 43.7383 20.0242 43.1896 19.5078 43.0291Z" fill="#1E3864"/>
<path d="M44.6044 22.879C44.6044 21.0153 44.0236 19.2398 42.9245 17.7424L36.7268 8.54188C36.5448 8.27175 36.2405 8.10981 35.9148 8.10981C35.589 8.10981 35.2847 8.27175 35.1027 8.54188L32.4911 12.4187L24.4163 0.432068C24.2344 0.16194 23.93 0 23.6043 0C23.2787 0 22.9743 0.16194 22.7924 0.432068L8.93096 21.0087C6.61818 24.1516 5.396 27.8796 5.396 31.7917C5.396 41.8317 13.5643 50 23.6043 50C33.6444 50 41.8126 41.8317 41.8126 31.7917C41.8126 30.9902 41.7591 30.1873 41.655 29.3968C43.4622 27.8033 44.6044 25.4722 44.6044 22.879ZM35.9148 10.8413L41.3002 18.8359C41.311 18.8526 41.3223 18.8689 41.3342 18.885C42.1925 20.0474 42.6462 21.4285 42.6462 22.8789C42.6462 26.5906 39.6266 29.6103 35.9148 29.6103C32.2031 29.6103 29.1834 26.5906 29.1834 22.8789C29.1834 21.4285 29.6371 20.0474 30.4955 18.885C30.5068 18.8696 30.5177 18.8539 30.5282 18.8378L33.3012 14.7212C33.3063 14.7137 33.3116 14.7063 33.3165 14.6985L35.9148 10.8413ZM39.8544 31.7917C39.8544 40.7521 32.5646 48.0418 23.6042 48.0418C14.6438 48.0418 7.35406 40.7521 7.35406 31.7917C7.35406 28.2921 8.44965 24.9578 10.5226 22.1496C10.5344 22.1336 10.5459 22.1169 10.5569 22.0998L23.6043 2.73143L31.3108 14.1712L28.9051 17.7425C27.806 19.2398 27.2253 21.0154 27.2253 22.879C27.2253 27.6704 31.1234 31.5685 35.9148 31.5685C37.3158 31.5685 38.6402 31.2348 39.8134 30.6433C39.8401 31.0252 39.8544 31.4086 39.8544 31.7917Z" fill="#1E3864"/>
<path d="M32.4626 22.64C32.4626 22.1657 32.5592 21.7078 32.7497 21.2793C32.9694 20.7852 32.7469 20.2065 32.2528 19.9869C31.7587 19.7675 31.1802 19.9897 30.9604 20.4838C30.6578 21.1645 30.5044 21.8899 30.5044 22.64C30.5044 24.417 31.3871 26.0687 32.8656 27.0579C33.0329 27.1698 33.222 27.2233 33.4092 27.2233C33.7251 27.2233 34.035 27.0707 34.2238 26.7887C34.5245 26.3392 34.404 25.7311 33.9546 25.4304C33.0203 24.8053 32.4626 23.7621 32.4626 22.64Z" fill="#1E3864"/>
<path d="M23.14 44.3855C22.9003 43.7555 22.006 43.5759 21.5431 44.0682C20.992 44.6023 21.2886 45.583 22.0444 45.7199C22.7937 45.8841 23.4468 45.0888 23.14 44.3855Z" fill="#1E3864"/>
<path d="M35.3989 27.9504C36.0302 28.3876 36.9343 27.9042 36.9214 27.1368C36.9356 26.3693 36.0297 25.8848 35.3989 26.3222C34.8271 26.6805 34.8249 27.5932 35.3989 27.9504Z" fill="#1E3864"/>
</g>
<defs>
<clipPath id="clip0">
<rect width="50" height="50" fill="white"/>
</clipPath>
</defs>
</svg>
