<svg width="50" height="50" viewBox="0 0 50 50" fill="none" xmlns="http://www.w3.org/2000/svg">
<path d="M49.98 44.9195L48.7144 40.4791C48.4548 39.5684 47.0457 39.9696 47.3053 40.8806L48.0633 43.5398L36.2618 36.4522C37.2561 34.6065 37.7826 32.5072 37.7826 30.4109C37.7826 23.61 32.4426 18.0336 25.7354 17.6526V5.817L27.6035 7.83334C28.2529 8.53398 29.3184 7.52849 28.6782 6.83752L25.5403 3.45048C25.259 3.14602 24.7468 3.14611 24.4655 3.45048L21.3276 6.83752C20.6838 7.5324 21.7585 8.52812 22.4023 7.83334L24.2704 5.817V17.6536C22.2023 17.7718 20.1933 18.3877 18.4199 19.4554C17.6084 19.9438 18.3644 21.1998 19.1756 20.7106C20.9297 19.6544 22.9448 19.0963 25.0028 19.0963C31.3038 19.0963 36.5138 24.4841 36.3108 30.78C35.9749 31.5792 34.6257 32.4079 32.6652 33.0124C31.772 33.2879 32.2293 34.6797 33.0969 34.4125C34.0357 34.1231 35.0992 33.7093 35.9832 33.1431C34.7579 38.0663 30.3 41.7256 25.0028 41.7256C19.7053 41.7256 15.2473 38.0658 14.0222 33.142C14.8562 33.6764 15.8448 34.0725 16.7198 34.3531C19.0192 35.0907 21.9609 35.4968 25.0028 35.4968C26.259 35.4968 27.5012 35.4285 28.695 35.2936C29.6362 35.1873 29.4717 33.7273 28.5305 33.8378C27.3911 33.9664 26.2043 34.0317 25.0028 34.0317C22.1087 34.0317 19.326 33.6504 17.1673 32.958C15.3047 32.3605 14.02 31.5523 13.6949 30.7798C13.691 30.6572 13.6882 30.5345 13.6882 30.411C13.6882 27.6884 14.6692 25.0575 16.4504 23.003C17.0709 22.2873 15.9639 21.3274 15.3434 22.0432C13.1995 24.5161 12.1547 27.6908 12.235 30.9427C12.3167 32.9287 12.8533 34.7991 13.7439 36.4523L1.94227 43.5398L2.70025 40.8806C2.95987 39.9696 1.55078 39.5684 1.29116 40.4791L0.0255567 44.9195C-0.0883348 45.319 0.189654 45.7908 0.636233 45.8488L5.1076 46.7616C6.00613 46.9453 6.31391 45.5126 5.40063 45.326L2.72379 44.7796L14.5118 37.7001C16.8229 41.0163 20.6634 43.1908 25.0028 43.1908C29.3422 43.1908 33.1828 41.0162 35.4938 37.7001L47.2819 44.7796L44.6051 45.326C43.6903 45.5128 44.0123 46.9428 44.8981 46.7616L49.3699 45.8487C49.7268 45.8021 50.0895 45.3292 49.98 44.9195Z" fill="#1E3864"/>
</svg>
