<svg width="40" height="40" viewBox="0 0 40 40" fill="none" xmlns="http://www.w3.org/2000/svg">
<g clip-path="url(#clip0)">
<path d="M32.5006 27.2088V21.3809C32.5006 21.3657 32.5001 21.3504 32.4993 21.3352L31.9665 12.2464C31.8203 9.74979 30.4408 9.37705 29.6315 9.37705C29.0647 9.37705 28.5059 9.54276 28.0316 9.83722L27.4396 5.40691C27.1496 3.23782 25.7999 2.63507 24.7319 2.7775C23.5865 2.93055 22.4597 3.91275 21.9447 5.27277L21.0541 2.29077C20.5713 0.67426 19.5352 0.204331 18.9606 0.0681572C17.9893 -0.162081 16.9097 0.200347 16.1429 1.01388C15.2262 1.98655 14.9284 3.39751 15.3463 4.78815L17.8343 13.0664C16.3963 12.7577 15.1348 13.4329 13.6476 14.6367C12.0045 15.9668 9.35397 17.3616 8.73412 17.6623C8.08762 17.9759 7.75051 18.6858 7.85434 19.5149C7.91754 20.0192 8.15629 20.5793 8.56841 21.0361C8.26239 21.2442 8.01106 21.4933 7.83449 21.757C7.41238 22.3873 7.38777 23.098 7.76879 23.6581C7.87879 23.8197 8.00621 23.9791 8.14122 24.1478C8.57575 24.6909 9.17076 25.4348 9.75327 26.9896C10.5823 29.2028 12.0085 30.1975 13.1543 30.9968C14.244 31.7569 15.0157 32.2964 15.2223 33.6143C14.8532 33.6766 14.5718 33.9969 14.5718 34.3838V39.2188C14.5718 39.6503 14.9216 40.0001 15.353 40.0001H31.0677C31.4992 40.0001 31.849 39.6503 31.849 39.2188V34.3838C31.849 33.9934 31.5623 33.6708 31.1881 33.6127C31.2893 32.771 31.5338 31.9101 31.7899 31.0103C32.1392 29.7828 32.5006 28.5137 32.5006 27.2088ZM30.2864 38.4375H16.1342V35.165H19.6944C20.1259 35.165 20.4756 34.8152 20.4756 34.3837C20.4756 33.9522 20.1259 33.6024 19.6944 33.6024H16.7974C16.5505 31.4608 15.2805 30.5746 14.0483 29.7152C12.9799 28.9699 11.875 28.1993 11.2164 26.4414C10.5465 24.6532 9.83327 23.7617 9.36131 23.1716C9.24248 23.0231 9.13967 22.8946 9.06287 22.7823C9.06639 22.743 9.11381 22.5991 9.31694 22.4234C9.62022 22.1611 10.1686 21.928 10.7984 22.06C11.9346 22.2982 12.2663 22.7486 12.7683 23.4303C13.2232 24.0479 13.7893 24.8166 15.017 25.4579C15.8876 25.9127 16.6192 26.2431 17.446 26.0211C18.2272 25.8115 18.9061 25.1474 19.8151 24.0711C20.5354 23.2181 20.6301 22.2438 20.0891 21.2536C19.672 20.4903 18.9294 19.7752 18.0732 18.9863C16.6831 17.7052 15.1947 18.5957 13.9988 19.3113C12.8999 19.9687 11.7635 20.6486 10.3896 20.3667C9.76788 20.2391 9.5278 19.7264 9.46905 19.5722C9.36608 19.3021 9.39881 19.1118 9.42506 19.0638C10.2391 18.668 12.9078 17.2459 14.6306 15.8513C16.5934 14.2626 17.3864 14.2792 18.6362 15.1224C18.9922 15.3625 19.3112 15.468 19.5676 15.5527C19.9061 15.6646 20.1505 15.7454 20.5563 16.1381C20.8663 16.4381 21.361 16.4301 21.661 16.12C21.9611 15.81 21.953 15.3153 21.6429 15.0153C20.9803 14.374 20.469 14.2049 20.058 14.0692C19.9344 14.0283 19.8306 13.9936 19.7309 13.9491L16.8427 4.33846C16.4748 3.1143 17.026 2.35522 17.28 2.08569C17.6649 1.67724 18.171 1.4867 18.6001 1.58865C19.1458 1.71803 19.4215 2.28515 19.5569 2.73804L22.7095 13.2931C22.9012 13.9822 23.2615 14.4575 23.5796 14.8771C24.009 15.4436 24.3798 15.9329 24.4832 17.0187C24.5217 17.4231 24.8619 17.726 25.26 17.7259C25.2848 17.7259 25.3098 17.7248 25.335 17.7224C25.7645 17.6815 26.0795 17.3001 26.0387 16.8706C25.8931 15.3428 25.3008 14.5613 24.8248 13.9333C24.5455 13.5648 24.3248 13.2738 24.2134 12.8695C24.2119 12.8641 24.2104 12.8587 24.2088 12.8534L23.8147 11.5338L23.2425 7.25202C23.0294 5.65801 24.1225 4.43557 24.9388 4.32643C25.5724 4.24197 25.8059 4.97995 25.8906 5.61403L27.7425 19.4706C27.795 19.8632 28.1304 20.1486 28.5158 20.1486C28.5503 20.1486 28.5852 20.1463 28.6203 20.1416C29.048 20.0844 29.3483 19.6914 29.2912 19.2637L28.3308 12.0776C28.2896 11.7926 28.4263 11.5644 28.5484 11.4232C28.8062 11.125 29.2212 10.9397 29.6312 10.9397C29.8562 10.9397 30.3245 10.9397 30.4064 12.338L30.9381 21.4039V27.2088C30.9381 28.2956 30.6218 29.4063 30.287 30.5824C30.0078 31.5632 29.7209 32.5711 29.6169 33.6024H26.7258C26.2943 33.6024 25.9445 33.9522 25.9445 34.3837C25.9445 34.8152 26.2943 35.165 26.7258 35.165H30.2864V38.4375ZM13.1855 21.5193C13.7773 21.2646 14.313 20.9441 14.8012 20.652C16.1248 19.8601 16.5493 19.7065 17.0145 20.1353C18.9619 21.9298 19.1285 22.4624 18.6213 23.063C18.0679 23.7184 17.4475 24.4031 17.0413 24.512C16.7826 24.5814 16.4158 24.4257 15.7406 24.073C14.8332 23.599 14.4414 23.067 14.0266 22.5037C13.7869 22.1784 13.5336 21.8344 13.1855 21.5193Z" fill="#1E3864"/>
<path d="M23.2103 33.6024H23.2096C22.7782 33.6024 22.4287 33.9522 22.4287 34.3837C22.4287 34.8152 22.7788 35.1649 23.2103 35.1649C23.6418 35.1649 23.9915 34.8152 23.9915 34.3837C23.9915 33.9522 23.6418 33.6024 23.2103 33.6024Z" fill="#1E3864"/>
</g>
<defs>
<clipPath id="clip0">
<rect width="40" height="40" fill="white"/>
</clipPath>
</defs>
</svg>
