<svg width="45" height="45" viewBox="0 0 45 45" fill="none" xmlns="http://www.w3.org/2000/svg">
<circle cx="22.5" cy="22.5" r="22.5" fill="#1E3864"/>
<path d="M22.5 12.1201C21.7606 12.1201 21.0489 12.3426 20.442 12.7634C20.2626 12.8878 20.2173 13.1351 20.3407 13.3159C20.4642 13.4967 20.7097 13.5424 20.8891 13.418C21.364 13.0888 21.9209 12.9148 22.5 12.9148C24.069 12.9148 25.3455 14.2009 25.3455 15.7817C25.3455 17.3625 24.069 18.6486 22.5 18.6486C20.9309 18.6486 19.6544 17.3625 19.6544 15.7817C19.6544 15.3153 19.7619 14.8708 19.9738 14.4604C20.0743 14.2657 19.9992 14.0258 19.806 13.9246C19.6128 13.8234 19.3748 13.899 19.2742 14.0936C19.007 14.6111 18.8657 15.1948 18.8657 15.7817C18.8658 17.8007 20.4961 19.4433 22.5 19.4433C24.5039 19.4433 26.1342 17.8007 26.1342 15.7817C26.1342 13.7627 24.5039 12.1201 22.5 12.1201Z" fill="white"/>
<path d="M35.9697 33.65L32.0777 24.2282C32.0165 24.0801 31.8729 23.9836 31.7137 23.9836H27.8352C28.5896 22.9553 29.2175 21.9312 29.7079 20.9256C30.5769 19.1435 31.0175 17.4128 31.0175 15.7815C31.0175 11.0496 27.1965 7.19995 22.5 7.19995C17.8034 7.19995 13.9825 11.0496 13.9825 15.7815C13.9825 17.4128 14.4231 19.1435 15.2921 20.9255C15.7825 21.9311 16.4104 22.9553 17.1648 23.9835H13.2863C13.1271 23.9835 12.9834 24.0801 12.9223 24.2281L10.2702 30.6483C10.1865 30.8509 10.2816 31.0835 10.4827 31.1678C10.5323 31.1886 10.5835 31.1984 10.6341 31.1984C10.7886 31.1984 10.9352 31.1063 10.9982 30.9537L11.3767 30.0376H14.0612L12.67 33.4053H9.98558L10.3888 32.429C10.4725 32.2264 10.3774 31.9939 10.1763 31.9096C9.97514 31.8252 9.74437 31.9211 9.66073 32.1237L9.03029 33.65C8.97962 33.7726 8.99312 33.9127 9.06631 34.0231C9.1394 34.1336 9.26248 34.2 9.39432 34.2H35.6056C35.7374 34.2 35.8605 34.1336 35.9337 34.0231C36.0068 33.9127 36.0204 33.7726 35.9697 33.65ZM14.7712 15.7815C14.7712 11.4877 18.2383 7.99455 22.5 7.99455C26.7616 7.99455 30.2288 11.4878 30.2288 15.7815C30.2288 17.582 29.6078 20.4592 26.7354 24.1257C26.7325 24.1291 26.7299 24.1327 26.7272 24.1363C26.5805 24.3233 26.428 24.5124 26.2694 24.7035C24.6909 26.6053 23.0936 27.9939 22.4999 28.4873C21.908 27.9956 20.3182 26.6139 18.7409 24.7158C18.5782 24.5201 18.4222 24.3267 18.2721 24.1352C18.2697 24.1322 18.2674 24.129 18.2649 24.126C15.3925 20.4597 14.7712 17.5827 14.7712 15.7815ZM13.5493 24.7782H16.2339L15.2547 27.1485H12.5702L13.5493 24.7782ZM15.8553 33.4053L18.3201 27.4386L25.3346 33.4053H15.8553ZM26.5571 33.4053L18.4174 26.4813C18.3214 26.3995 18.1923 26.3689 18.0702 26.3987C17.9481 26.4285 17.8473 26.5153 17.799 26.6322L15.0011 33.4053H13.5243L15.0165 29.7929C15.0672 29.6703 15.0537 29.5303 14.9805 29.4198C14.9074 29.3093 14.7842 29.2429 14.6524 29.2429H11.705L12.242 27.943H15.5177C15.677 27.943 15.8206 27.8465 15.8818 27.6984L17.0881 24.7781H17.7725C17.8913 24.9274 18.0121 25.0766 18.136 25.2259C20.1708 27.6743 22.1743 29.2463 22.2587 29.3121C22.3297 29.3675 22.4149 29.3951 22.5 29.3951C22.5851 29.3951 22.6702 29.3674 22.7413 29.3121C22.7876 29.2759 23.414 28.7842 24.3061 27.9431H28.7717C28.9895 27.9431 29.166 27.7652 29.166 27.5458C29.166 27.3263 28.9895 27.1485 28.7717 27.1485H25.1188C25.6656 26.5946 26.2631 25.9488 26.864 25.2259C26.9879 25.0767 27.1087 24.9275 27.2275 24.7782H31.4506L32.4297 27.1485H30.349C30.1312 27.1485 29.9547 27.3263 29.9547 27.5458C29.9547 27.7652 30.1312 27.9431 30.349 27.9431H32.758L33.2949 29.243H25.1701C25.0055 29.243 24.8583 29.3459 24.8007 29.5013C24.7431 29.6566 24.7873 29.8316 24.9116 29.9403L28.8737 33.4053H26.5571ZM30.0769 33.4053L26.226 30.0376H33.6232L35.0144 33.4053H30.0769Z" fill="white"/>
</svg>
