<svg width="40" height="40" viewBox="0 0 40 40" fill="none" xmlns="http://www.w3.org/2000/svg">
<path d="M39.4141 20.5359H38.5306L34.8828 12.1137C35.2466 11.7909 35.4764 11.3203 35.4764 10.7969C35.4764 9.82577 34.6864 9.03585 33.7154 9.03585C33.2184 9.03585 32.7691 9.24311 32.4486 9.57538C29.6222 8.28873 26.6338 7.45092 23.5513 7.08108C23.3576 5.9049 22.6137 4.9124 21.5933 4.37677V3.22763C21.5933 2.41349 20.9309 1.75122 20.1169 1.75122H19.6045C18.7903 1.75122 18.1281 2.41364 18.1281 3.22763V4.37677C17.1037 4.91451 16.3578 5.91264 16.1678 7.09483C13.1679 7.46647 10.2563 8.28233 7.49939 9.5235C7.18314 9.2217 6.7554 9.03585 6.28478 9.03585C5.31368 9.03585 4.52376 9.82585 4.52376 10.7969C4.52376 11.3203 4.7536 11.7909 5.11735 12.1137L1.46946 20.5359H0.585939C0.262266 20.5359 0 20.7982 0 21.1219V21.8861C0 24.3392 1.99586 26.335 4.44892 26.335H8.12041C10.5735 26.335 12.5693 24.3392 12.5693 21.8861V21.1219C12.5693 20.7982 12.3071 20.5359 11.9834 20.5359H11.0999L7.45212 12.1137C7.66033 11.929 7.82439 11.6958 7.92681 11.4318H17.5121V29.4903H17.1545C14.8653 29.4903 12.7056 31.2557 12.7056 34.1346C11.9674 34.2399 11.3975 34.8744 11.3975 35.6411V36.7254C11.3975 37.5655 12.081 38.249 12.921 38.249H18.4934C18.8171 38.249 19.0793 37.9867 19.0793 37.663C19.0793 37.3393 18.8171 37.0771 18.4934 37.0771H12.921C12.7305 37.0771 12.5695 36.9161 12.5695 36.7255V35.6412C12.5695 35.4507 12.7305 35.2896 12.921 35.2896C13.1085 35.2896 26.6088 35.2896 26.8004 35.2896C26.991 35.2896 27.152 35.4507 27.152 35.6412V36.7255C27.152 36.9161 26.991 37.0771 26.8004 37.0771H21.2281C20.9044 37.0771 20.6422 37.3393 20.6422 37.663C20.6422 37.9867 20.9044 38.249 21.2281 38.249H26.8004C27.6405 38.249 28.324 37.5655 28.324 36.7254V35.6411C28.324 34.8744 27.754 34.2399 27.0159 34.1346C27.0159 31.281 24.878 29.4903 22.567 29.4903H22.2093V22.4892C22.2093 22.1655 21.9471 21.9032 21.6234 21.9032C21.2997 21.9032 21.0375 22.1655 21.0375 22.4892V29.4903H18.6844V11.245C19.4488 11.5005 20.2731 11.5005 21.0375 11.245V19.7547C21.0375 20.0784 21.2997 20.3407 21.6234 20.3407C21.9471 20.3407 22.2093 20.0784 22.2093 19.7547V11.4319H32.0734C32.1758 11.6958 32.3399 11.929 32.5481 12.1138L28.9003 20.536H28.0166C27.6929 20.536 27.4307 20.7983 27.4307 21.122V21.8862C27.4307 24.3393 29.4265 26.3351 31.8796 26.3351H35.5511C38.0042 26.3351 40 24.3392 40 21.8862V21.122C40.0001 20.7982 39.7377 20.5359 39.4141 20.5359ZM6.2847 10.2078C6.61064 10.2078 6.88611 10.4773 6.87189 10.8215C6.87173 10.8256 6.87212 10.8297 6.87197 10.8337C6.8522 11.1506 6.58642 11.3858 6.28478 11.3858C5.96587 11.3858 5.69571 11.1266 5.69571 10.7968C5.69556 10.4721 5.95993 10.2078 6.2847 10.2078ZM11.3975 21.7079C11.3975 23.8817 9.79557 25.1631 8.12049 25.1631H4.44892C2.76883 25.1631 1.17188 23.8786 1.17188 21.7079C1.51633 21.7079 11.0699 21.7079 11.3975 21.7079ZM9.82283 20.5359H2.74657L6.2029 12.5559C6.25704 12.5588 6.31876 12.5584 6.3665 12.5559L9.82283 20.5359ZM8.74455 10.2599C11.1209 9.27077 13.6094 8.60506 16.1657 8.27522C16.2806 9.00459 16.6105 9.70014 17.1403 10.2599H8.74455ZM19.3 3.22763C19.3 3.05974 19.4365 2.92318 19.6044 2.92318H20.1168C20.2847 2.92318 20.4213 3.05974 20.4213 3.22763V3.99177C20.2469 3.96537 20.0356 3.94982 19.8606 3.94982C19.6892 3.94982 19.4778 3.9649 19.3 3.99177V3.22763ZM22.5669 30.6624C24.2471 30.6624 25.8439 31.9469 25.8439 34.1177H13.8775C13.8775 31.9439 15.4795 30.6624 17.1545 30.6624C17.6985 30.6624 22.0232 30.6624 22.5669 30.6624ZM19.8607 10.26C18.4264 10.26 17.2616 9.07881 17.2932 7.63397C17.2932 7.63256 17.2931 7.63123 17.2931 7.62983C17.3189 6.53545 18.0331 5.6056 19.0198 5.26381C20.6965 4.68052 22.4298 5.94553 22.4298 7.69084C22.4298 9.10952 21.2763 10.26 19.8607 10.26ZM22.5804 10.2599C23.1111 9.69842 23.4463 8.99077 23.5583 8.26131C26.1534 8.58608 28.6785 9.25639 31.089 10.2599H22.5804ZM33.1282 10.8216C33.1142 10.4809 33.3864 10.2078 33.7153 10.2078C34.0401 10.2078 34.3044 10.4721 34.3044 10.7969C34.3044 11.1265 34.0341 11.3858 33.7153 11.3858C33.4107 11.3858 33.1478 11.1484 33.1281 10.8338C33.128 10.8298 33.1284 10.8257 33.1282 10.8216ZM33.6335 12.5559C33.6337 12.5559 33.6338 12.5559 33.6341 12.5559C33.6868 12.5583 33.7395 12.559 33.7971 12.5559L37.2534 20.5359H30.1772L33.6335 12.5559ZM35.5511 25.1631H31.8796C30.1994 25.1631 28.6026 23.8785 28.6026 21.7077C28.947 21.7077 38.5006 21.7077 38.8282 21.7077C38.8281 23.8817 37.2262 25.1631 35.5511 25.1631Z" fill="#1E3864"/>
<path d="M19.8606 5.95813C18.9051 5.95813 18.1279 6.7354 18.1279 7.69071C18.1279 8.64618 18.9053 9.42337 19.8606 9.42337C20.8161 9.42337 21.5933 8.6461 21.5933 7.69071C21.5933 6.73532 20.8161 5.95813 19.8606 5.95813ZM19.8606 8.25149C19.5514 8.25149 19.2999 7.99993 19.2999 7.69079C19.2999 7.38165 19.5514 7.13016 19.8606 7.13016C20.1697 7.13016 20.4213 7.38165 20.4213 7.69079C20.4214 7.99993 20.1698 8.25149 19.8606 8.25149Z" fill="#1E3864"/>
</svg>
