<svg width="40" height="40" viewBox="0 0 40 40" fill="none" xmlns="http://www.w3.org/2000/svg">
<g clip-path="url(#clip0)">
<path d="M22.9564 1.39653L22.9565 1.39656L38.5253 16.9654C39.3152 17.7553 39.75 18.8044 39.75 19.9219C39.75 21.0393 39.3152 22.0884 38.525 22.8783L38.525 22.8783L22.9565 38.4472L22.9564 38.4472C22.1665 39.2374 21.1172 39.6719 20 39.6719C18.8828 39.6719 17.8334 39.2374 17.0436 38.4472L17.0435 38.4472L1.47469 22.8783C0.684765 22.0884 0.25 21.0393 0.25 19.9219C0.25 18.8044 0.684765 17.7553 1.47469 16.9654L17.0435 1.39656L17.0436 1.39653C17.8334 0.606368 18.8828 0.171875 20 0.171875C21.1172 0.171875 22.1665 0.606368 22.9564 1.39653ZM21.6517 37.1424L37.2205 21.5736C37.6614 21.1327 37.9047 20.5451 37.9047 19.9219C37.9047 19.2983 37.6614 18.711 37.2205 18.2702L21.6517 2.70134C21.2108 2.26048 20.6236 2.01715 20 2.01715C19.3764 2.01715 18.7892 2.26048 18.3483 2.70134L2.77946 18.2702C2.3386 18.711 2.09528 19.2983 2.09528 19.9219C2.09528 20.5454 2.3386 21.1327 2.77946 21.5736L18.3483 37.1424C18.7892 37.5833 19.3764 37.8266 20 37.8266C20.6236 37.8266 21.2108 37.5833 21.6517 37.1424Z" fill="#1E3864" stroke="white" stroke-width="0.5"/>
<path d="M19.1128 12.0092C19.1128 11.4997 19.5261 11.0864 20.0356 11.0864C20.545 11.0864 20.9581 11.4996 20.9581 12.0092V24.1729C20.9581 24.6825 20.545 25.0957 20.0356 25.0957C19.5261 25.0957 19.1128 24.6824 19.1128 24.1729V12.0092Z" fill="#1E3864" stroke="white" stroke-width="0.5"/>
<path d="M20.9402 27.668L20.9402 27.668C20.9341 27.6379 20.9266 27.6083 20.9182 27.5809L20.9175 27.5787L20.9175 27.5787C20.9094 27.5514 20.8993 27.5237 20.8872 27.4943L20.8859 27.4913L20.8859 27.4913C20.8766 27.468 20.8642 27.4425 20.848 27.4112C20.8351 27.3869 20.8197 27.3614 20.8032 27.3371L20.8023 27.3357L20.8023 27.3357C20.7841 27.3084 20.7662 27.2837 20.7484 27.2618L20.9402 27.668ZM20.9402 27.668L20.9406 27.6699M20.9402 27.668L20.9406 27.6699M20.9406 27.6699C20.9462 27.6964 20.9505 27.7255 20.9538 27.7571C20.9567 27.7874 20.9581 27.8173 20.9581 27.8474C20.9581 27.8791 20.9568 27.9094 20.9539 27.9374L21.2026 27.963M20.9406 27.6699L18.9141 28.1883M18.9141 28.1883C18.9025 28.1513 18.893 28.1138 18.886 28.0763C18.8784 28.0387 18.8729 28.0006 18.8689 27.963M18.9141 28.1883C18.925 28.2243 18.9385 28.2609 18.9525 28.296L18.9141 28.1883ZM18.8689 27.963L19.1176 27.9374C19.1144 27.9069 19.1128 27.8764 19.1128 27.8474C19.1128 27.8183 19.1144 27.7887 19.1176 27.758L18.8689 27.7323M18.8689 27.963C18.8649 27.9246 18.8628 27.8855 18.8628 27.8474C18.8628 27.8089 18.8649 27.7708 18.8689 27.7323M18.8689 27.963L19.1175 27.9368C19.1208 27.9681 19.1252 27.9982 19.131 28.0265L19.1318 28.0303L19.1317 28.0303C19.1368 28.0576 19.1438 28.0855 19.1526 28.1134L19.1532 28.1153L19.1532 28.1153C19.1613 28.1419 19.1717 28.1707 19.1836 28.2006C19.1966 28.231 19.2092 28.2581 19.222 28.2819C19.2365 28.3089 19.2521 28.3352 19.2687 28.3606C19.2839 28.3834 19.3014 28.4067 19.3217 28.4323C19.3426 28.4569 19.3629 28.4795 19.3832 28.5001C19.406 28.5225 19.4278 28.5425 19.4488 28.5594L19.4509 28.5612L19.4509 28.5612C19.4724 28.5789 19.4963 28.5964 19.5223 28.6138C19.5487 28.6311 19.5745 28.6468 19.599 28.6599C19.6286 28.6749 19.6562 28.6881 19.6835 28.6997C19.7117 28.7114 19.7397 28.7216 19.7666 28.7296L19.7683 28.7301L19.7683 28.7301C19.7948 28.7382 19.8237 28.7454 19.855 28.7521C19.8886 28.7583 19.9177 28.763 19.9441 28.7655L19.9459 28.7657L19.9459 28.7657C19.974 28.7686 20.0034 28.7699 20.0353 28.7699C20.0674 28.7699 20.0975 28.7686 20.1251 28.7657L20.1267 28.7656L20.1267 28.7656C20.1526 28.763 20.1817 28.7584 20.2154 28.7521C20.2465 28.7454 20.2761 28.7381 20.304 28.7298C20.3308 28.7216 20.3591 28.7113 20.3871 28.6996C20.4155 28.6876 20.4442 28.6742 20.472 28.6601C20.496 28.6472 20.5214 28.6315 20.5492 28.6132C20.5735 28.5972 20.5968 28.58 20.6196 28.5612L20.6218 28.5594L20.6218 28.5594C20.6429 28.5424 20.6649 28.5224 20.6875 28.5005C20.7109 28.4762 20.7314 28.4539 20.7484 28.4329C20.7674 28.4096 20.7851 28.3857 20.8019 28.3606C20.8194 28.3338 20.8351 28.3081 20.8484 28.2834C20.8635 28.2543 20.8762 28.2273 20.8859 28.2031L20.888 28.198L20.888 28.198C20.8991 28.1721 20.9091 28.1442 20.9177 28.1161C20.9266 28.0862 20.9342 28.0561 20.9402 28.0265L20.9406 28.0246L20.9406 28.0246C20.9463 27.9975 20.9506 27.9681 20.954 27.9368L21.2026 27.963M18.8689 27.7323C18.8729 27.6942 18.8784 27.6557 18.886 27.6182C18.893 27.5807 18.9025 27.5431 18.9141 27.5074C18.925 27.4705 18.9385 27.4345 18.9525 27.3985M18.8689 27.7323L19.1176 27.7582C19.1209 27.7263 19.1253 27.696 19.131 27.668L19.131 27.668L19.1317 27.6641C19.1369 27.6367 19.1437 27.6096 19.1518 27.5846L19.1519 27.5847L19.1537 27.5787C19.1614 27.5529 19.1713 27.5257 19.184 27.493M18.9525 27.3985L19.1825 27.4965C19.183 27.4953 19.1835 27.4942 19.184 27.493M18.9525 27.3985C18.9675 27.3634 18.9839 27.3289 19.0016 27.2953L18.9525 27.3985ZM19.184 27.493C19.1956 27.4659 19.2085 27.4391 19.2224 27.4127M19.184 27.493L19.2224 27.4127M21.2026 27.963C21.2065 27.9246 21.2081 27.8855 21.2081 27.8474C21.2081 27.8089 21.2062 27.7708 21.2026 27.7323L21.118 28.296C21.133 28.2609 21.1461 28.2243 21.1571 28.1883C21.1681 28.1513 21.1775 28.1138 21.1852 28.0763C21.1931 28.0387 21.1986 28.0006 21.2026 27.963ZM19.2224 27.4127C19.2377 27.3842 19.2526 27.3588 19.2673 27.3371L19.2673 27.3371L19.2683 27.3357C19.2847 27.3111 19.303 27.2861 19.3221 27.2619C19.3421 27.2382 19.3623 27.2158 19.3832 27.1947C19.4037 27.1745 19.4261 27.1542 19.4498 27.1342C19.4734 27.1156 19.4985 27.0971 19.5234 27.0799C19.5469 27.0646 19.5733 27.0493 19.6017 27.0341L19.6017 27.0341L19.6025 27.0336C19.6274 27.0202 19.6544 27.0074 19.6839 26.9949L19.6839 26.9949L19.6847 26.9946C19.7086 26.9844 19.7358 26.9749 19.7666 26.9658L19.7666 26.9658L19.7719 26.9641C19.7977 26.9558 19.8251 26.9489 19.8524 26.9438L19.8524 26.9438L19.8555 26.9432C19.8886 26.9365 19.916 26.9321 19.9402 26.9302L19.9402 26.9303L19.9462 26.9296C20.0048 26.9235 20.0656 26.9235 20.1252 26.9297L20.1252 26.9297L20.1307 26.9302C20.1545 26.9321 20.1823 26.9365 20.2147 26.9431L20.2147 26.9431L20.2185 26.9438C20.2455 26.9489 20.2731 26.9558 20.3013 26.9647L20.3012 26.9647L20.3032 26.9653C20.3342 26.9747 20.3618 26.9843 20.3859 26.9946L20.3859 26.9946L20.3866 26.9949C20.4173 27.0079 20.445 27.0208 20.4698 27.0341C20.4968 27.0486 20.5231 27.0642 20.5485 27.0808C20.5714 27.0961 20.5948 27.1137 20.6207 27.1342C20.6446 27.1543 20.667 27.1744 20.6875 27.1943L19.2224 27.4127ZM21.1571 27.5074C21.1461 27.4705 21.133 27.4345 21.118 27.3985C21.104 27.3634 21.0869 27.3289 21.0695 27.2953C21.0518 27.2618 21.0314 27.2282 21.0103 27.1971L21.1571 27.5074Z" fill="#1E3864" stroke="white" stroke-width="0.5"/>
</g>
<defs>
<clipPath id="clip0">
<rect width="40" height="40" fill="white"/>
</clipPath>
</defs>
</svg>
