<svg width="40" height="40" viewBox="0 0 40 40" fill="none" xmlns="http://www.w3.org/2000/svg">
<g clip-path="url(#clip0)">
<path d="M38.3614 8.74712H36.4851V7.18794C36.4851 5.95182 35.4795 4.94617 34.2434 4.94617H32.4552C31.219 4.94617 30.2135 5.95182 30.2135 7.18794V13.6064H27.2168V11.8832C27.2168 10.6326 26.1994 9.61521 24.9488 9.61521C24.4574 9.61521 24.0026 9.77284 23.631 10.0395C23.2656 9.27591 22.4854 8.74712 21.5839 8.74712C20.7317 8.74712 19.9879 9.21962 19.6005 9.91641C19.2176 9.62122 18.7387 9.4447 18.2189 9.4447C17.4301 9.4447 16.7347 9.84997 16.3283 10.4628C15.9315 10.1224 15.4165 9.91618 14.854 9.91618C13.6033 9.91618 12.586 10.9335 12.586 12.1842V13.6066H9.78677V11.9536C9.78677 11.6302 9.5246 11.3681 9.20122 11.3681C8.87785 11.3681 8.61568 11.6302 8.61568 11.9536V25.5564C8.61568 26.1467 8.13538 26.627 7.54507 26.627H5.75659C5.16621 26.627 4.68598 26.1467 4.68598 25.5564V7.18794C4.68598 6.59755 5.16628 6.11725 5.75659 6.11725H7.54484C8.13522 6.11725 8.61544 6.59755 8.61544 7.18794V9.45813C8.61544 9.78158 8.87761 10.0437 9.20099 10.0437C9.52436 10.0437 9.78653 9.78158 9.78653 9.45813V7.18794C9.78653 5.95182 8.78088 4.94617 7.54484 4.94617H5.75659C4.52047 4.94617 3.5149 5.95182 3.5149 7.18794V8.74712H1.63858C0.735052 8.74712 0 9.48217 0 10.3856V22.3585C0 23.262 0.735052 23.9971 1.63858 23.9971H3.5149V25.5563C3.5149 26.7923 4.52055 27.798 5.75659 27.798H7.54484C8.78096 27.798 9.78653 26.7923 9.78653 25.5563V19.1378H11.7931V20.207C11.7931 20.7565 11.9854 21.2928 12.3345 21.7173L14.153 23.9281V34.4685C14.153 34.7919 14.4151 35.054 14.7385 35.054C15.0619 35.054 15.324 34.7919 15.324 34.4685V23.7183C15.324 23.5826 15.2769 23.4511 15.1907 23.3463L13.2389 20.9733C13.0617 20.7579 12.9642 20.4858 12.9642 20.207V19.1378L24.0378 19.2055C24.3612 19.2055 24.6233 18.9434 24.6233 18.6199C24.6233 18.2965 24.3612 18.0344 24.0378 18.0344H21.3736C20.8239 18.0344 20.3767 17.5872 20.3767 17.0376C20.3767 16.488 20.8239 16.0408 21.3736 16.0408H26.4082C26.7542 16.0408 27.0356 16.3222 27.0356 16.6681V20.2069C27.0356 20.4857 26.938 20.7579 26.7609 20.9732L24.8091 23.3462C24.7229 23.451 24.6757 23.5824 24.6757 23.7182V25.2626C24.6757 25.586 24.9379 25.8481 25.2613 25.8481C25.5846 25.8481 25.8468 25.586 25.8468 25.2626V23.9281L27.6653 21.7172C28.0143 21.2927 28.2066 20.7564 28.2066 20.2069V19.1377H30.2132V25.5562C30.2132 26.7922 31.2189 27.7979 32.4549 27.7979H34.2432C35.4793 27.7979 36.4849 26.7922 36.4849 25.5562V23.997H38.3612C39.2647 23.997 39.9998 23.262 39.9998 22.3584V10.3856C40 9.48217 39.2649 8.74712 38.3614 8.74712ZM1.63858 22.826C1.38079 22.826 1.17109 22.6162 1.17109 22.3585V10.3856C1.17109 10.1278 1.38079 9.91821 1.63858 9.91821H3.5149V22.826H1.63858ZM24.9487 10.7863C25.5536 10.7863 26.0457 11.2784 26.0457 11.8832V14.0632C26.0457 14.3724 25.9145 14.6633 25.69 14.8698H24.2074C23.9829 14.6633 23.8517 14.3724 23.8517 14.0632V11.8832C23.8517 11.2784 24.3438 10.7863 24.9487 10.7863ZM20.4868 11.0151C20.4868 10.4103 20.9789 9.91821 21.5837 9.91821C22.1886 9.91821 22.6807 10.4103 22.6807 11.0151V14.0632C22.6807 14.3724 22.5495 14.6633 22.325 14.8698H21.3736C21.212 14.8698 21.0546 14.8881 20.903 14.9219C20.6423 14.7161 20.4867 14.4028 20.4867 14.0632V11.0151H20.4868ZM17.1218 11.7126C17.1218 11.1078 17.6139 10.6157 18.2187 10.6157C18.8236 10.6157 19.3157 11.1078 19.3157 11.7126V14.0632C19.3157 14.6681 18.8236 15.1601 18.2187 15.1601C17.6138 15.1601 17.1218 14.6681 17.1218 14.0632V11.7126ZM13.7568 12.1841C13.7568 11.5793 14.2489 11.0872 14.8537 11.0872C15.4586 11.0872 15.9507 11.5793 15.9507 12.1841V14.0632C15.9507 14.6681 15.4586 15.1602 14.8537 15.1602C14.2489 15.1602 13.7568 14.6681 13.7568 14.0632V12.1841ZM9.78661 14.7775H12.7017C13.0017 15.6791 13.8528 16.3312 14.8538 16.3312C15.5207 16.3312 16.1212 16.0417 16.5366 15.5821C16.9519 16.0417 17.552 16.3312 18.2188 16.3312C18.7019 16.3312 19.149 16.178 19.5172 15.9196C19.3197 16.2462 19.2059 16.6288 19.2059 17.0376C19.2059 17.3699 19.2812 17.6849 19.4154 17.9666H9.78661V14.7775ZM28.2069 17.9667V16.6682C28.2069 15.8925 27.7131 15.2299 27.0234 14.9782C27.0523 14.9127 27.078 14.8457 27.1006 14.7775H30.2135V17.9667H28.2069ZM38.8289 22.3585C38.8289 22.6163 38.6192 22.826 38.3614 22.826H36.4851V21.1339C36.4851 20.8104 36.2229 20.5483 35.8996 20.5483C35.5762 20.5483 35.314 20.8104 35.314 21.1339V25.5563C35.314 26.1467 34.8337 26.6269 34.2434 26.6269H32.4552C31.8648 26.6269 31.3846 26.1467 31.3846 25.5563V7.18794C31.3846 6.59755 31.8649 6.11725 32.4552 6.11725H34.2434C34.8338 6.11725 35.314 6.59755 35.314 7.18794V18.6384C35.314 18.9619 35.5762 19.224 35.8996 19.224C36.2229 19.224 36.4851 18.9619 36.4851 18.6384V9.91821H38.3614C38.6192 9.91821 38.8289 10.1279 38.8289 10.3856V22.3585Z" fill="#1E3864"/>
<path d="M25.2613 27.1725C24.9379 27.1725 24.6758 27.4346 24.6758 27.758V34.4684C24.6758 34.7919 24.9379 35.054 25.2613 35.054C25.5847 35.054 25.8469 34.7919 25.8469 34.4684V27.758C25.8469 27.4346 25.5848 27.1725 25.2613 27.1725Z" fill="#1E3864"/>
</g>
<defs>
<clipPath id="clip0">
<rect width="40" height="40" fill="white" transform="translate(0 0.00012207)"/>
</clipPath>
</defs>
</svg>
