<svg width="40" height="40" viewBox="0 0 40 40" fill="none" xmlns="http://www.w3.org/2000/svg">
<path d="M33.1239 25.649C33.034 25.6492 32.9456 25.6269 32.8665 25.5843C32.7875 25.5417 32.7203 25.48 32.671 25.4049C32.6218 25.3298 32.592 25.2436 32.5844 25.1541C32.5769 25.0646 32.5917 24.9746 32.6276 24.8923C32.819 24.4452 33.006 23.9669 33.1931 23.429C33.215 23.3601 33.2506 23.2963 33.2977 23.2414C33.3447 23.1865 33.4024 23.1416 33.4671 23.1094C33.5318 23.0772 33.6024 23.0583 33.6746 23.0538C33.7467 23.0493 33.8191 23.0593 33.8873 23.0833C33.9555 23.1073 34.0183 23.1447 34.0717 23.1934C34.1252 23.2421 34.1684 23.301 34.1988 23.3666C34.2291 23.4323 34.2459 23.5033 34.2483 23.5756C34.2507 23.6479 34.2385 23.7199 34.2125 23.7874C34.0158 24.3479 33.8222 24.849 33.6212 25.3182C33.5799 25.4161 33.5108 25.4997 33.4224 25.5585C33.3339 25.6174 33.2301 25.6489 33.1239 25.649Z" fill="#1E3864"/>
<path d="M19.9997 38.9188C19.9253 38.9189 19.8517 38.9036 19.7834 38.874C15.2 36.8829 11.2985 33.5956 8.5586 29.4164C5.81872 25.2373 4.36 20.3485 4.36182 15.3513V8.1837C4.3618 8.10354 4.37962 8.02437 4.41397 7.95194C4.44832 7.87951 4.49836 7.81563 4.56045 7.76493C4.62254 7.71422 4.69513 7.67796 4.77296 7.65877C4.8508 7.63958 4.93192 7.63794 5.01047 7.65397C8.93101 8.45667 16.7191 6.35235 19.5283 1.35667C19.5794 1.27826 19.6493 1.21385 19.7316 1.16926C19.8139 1.12467 19.906 1.10132 19.9997 1.10132C20.0933 1.10132 20.1854 1.12467 20.2677 1.16926C20.35 1.21385 20.4199 1.27826 20.471 1.35667C23.2818 6.35235 31.0656 8.45613 34.9888 7.65397C35.0674 7.63794 35.1485 7.63958 35.2264 7.65877C35.3042 7.67796 35.3768 7.71422 35.4389 7.76493C35.501 7.81563 35.551 7.87951 35.5853 7.95194C35.6197 8.02437 35.6375 8.10354 35.6375 8.1837V15.3513C35.6384 16.881 35.5016 18.4077 35.2288 19.9129C35.2032 20.054 35.1225 20.1791 35.0046 20.2607C34.8867 20.3423 34.7413 20.3737 34.6002 20.348C34.4591 20.3224 34.334 20.2417 34.2524 20.1238C34.1708 20.0059 34.1394 19.8604 34.1651 19.7194C34.4264 18.278 34.5574 16.8161 34.5564 15.3513V8.81938C30.3186 9.35127 23.218 7.33289 19.9997 2.64262C16.7818 7.33289 9.68398 9.35127 5.4429 8.81938V15.3513C5.44112 20.0979 6.81513 24.7432 9.39862 28.7251C11.9821 32.7071 15.6643 35.8548 19.9997 37.7875C22.8864 36.5066 25.4952 34.6743 27.6797 32.3934C27.7789 32.2899 27.9151 32.2301 28.0585 32.227C28.2018 32.224 28.3405 32.278 28.444 32.3772C28.5475 32.4764 28.6073 32.6127 28.6104 32.756C28.6134 32.8994 28.5594 33.038 28.4602 33.1415C26.1216 35.5827 23.3186 37.5317 20.2159 38.874C20.1477 38.9036 20.074 38.9189 19.9997 38.9188Z" fill="#1E3864"/>
<path d="M30.513 30.3458C30.3994 30.3461 30.2886 30.3101 30.1968 30.2431C30.139 30.2015 30.09 30.1489 30.0526 30.0883C30.0152 30.0276 29.9902 29.9602 29.979 29.8899C29.9677 29.8196 29.9705 29.7477 29.9871 29.6785C30.0037 29.6092 30.0338 29.5439 30.0757 29.4864C30.379 29.0675 30.6644 28.6339 30.9244 28.1966C30.9978 28.0734 31.1171 27.9844 31.2561 27.9492C31.3952 27.914 31.5425 27.9354 31.6657 28.0088C31.7889 28.0822 31.8779 28.2015 31.9132 28.3406C31.9484 28.4796 31.9269 28.6269 31.8535 28.7502C31.5768 29.2145 31.2735 29.6756 30.9514 30.1204C30.9014 30.1901 30.8356 30.2468 30.7594 30.286C30.6832 30.3252 30.5987 30.3457 30.513 30.3458Z" fill="#1E3864"/>
<path d="M20.0001 35.0573C19.914 35.0573 19.8291 35.0368 19.7526 34.9973C16.157 33.1574 13.1407 30.3583 11.0378 26.9099C8.93495 23.4616 7.82745 19.4985 7.83796 15.4595V11.7346C7.83758 11.598 7.88893 11.4663 7.98169 11.3661C8.07445 11.2658 8.20174 11.2043 8.33796 11.1941C12.5025 10.8857 16.4608 9.25959 19.6396 6.55138C19.7387 6.46264 19.8671 6.41357 20.0001 6.41357C20.1332 6.41357 20.2615 6.46264 20.3607 6.55138C23.5392 9.26021 27.4975 10.8869 31.6623 11.1957C31.7985 11.2059 31.9258 11.2674 32.0186 11.3677C32.1113 11.468 32.1627 11.5996 32.1623 11.7362V15.4595C32.1728 19.4985 31.0653 23.4616 28.9624 26.9099C26.8595 30.3583 23.8433 33.1574 20.2477 34.9973C20.1711 35.0368 20.0863 35.0573 20.0001 35.0573ZM8.91905 12.2298V15.4595C8.90905 19.2524 9.9361 22.9758 11.8892 26.2273C13.8422 29.4787 16.647 32.1343 20.0001 33.907C23.3533 32.1343 26.158 29.4787 28.1111 26.2273C30.0642 22.9758 31.0912 19.2524 31.0812 15.4595V12.2298C27.0215 11.8245 23.1693 10.2393 20.0001 7.66976C16.831 10.2392 12.9788 11.8244 8.91905 12.2298Z" fill="#1E3864"/>
<path d="M23.3515 25.0902C23.2638 25.0899 23.1774 25.0686 23.0996 25.028L20.0001 23.3994L16.9028 25.0269C16.8135 25.074 16.7129 25.0952 16.6122 25.088C16.5115 25.0808 16.4148 25.0455 16.3332 24.9862C16.2515 24.9269 16.188 24.846 16.15 24.7525C16.112 24.659 16.1009 24.5567 16.118 24.4572L16.7099 21.008L14.2039 18.5648C14.1326 18.4942 14.0823 18.4052 14.0587 18.3077C14.035 18.2102 14.039 18.108 14.0701 18.0127C14.1013 17.9173 14.1584 17.8325 14.235 17.7677C14.3116 17.7029 14.4047 17.6607 14.5039 17.6458L17.9666 17.1426L19.5158 14.0075C19.5655 13.9232 19.6363 13.8533 19.7212 13.8048C19.8062 13.7562 19.9023 13.7307 20.0001 13.7307C20.098 13.7307 20.1941 13.7562 20.279 13.8048C20.364 13.8533 20.4348 13.9232 20.4845 14.0075L22.0336 17.1453L25.4963 17.6486C25.5956 17.6634 25.6887 17.7056 25.7653 17.7704C25.8419 17.8352 25.899 17.92 25.9301 18.0154C25.9612 18.1107 25.9652 18.2129 25.9416 18.3104C25.918 18.4079 25.8677 18.4969 25.7963 18.5675L23.2904 21.0107L23.8823 24.4599C23.8956 24.5375 23.8918 24.6171 23.8711 24.6931C23.8505 24.769 23.8135 24.8396 23.7627 24.8998C23.7119 24.96 23.6487 25.0083 23.5772 25.0415C23.5058 25.0747 23.428 25.0918 23.3493 25.0918L23.3515 25.0902ZM20.0001 22.248C20.0877 22.2479 20.174 22.2692 20.2515 22.3102L22.6299 23.561L22.1753 20.9123C22.1604 20.826 22.1668 20.7373 22.1938 20.654C22.2208 20.5707 22.2677 20.4952 22.3304 20.434L24.2558 18.5572L21.5958 18.1707C21.509 18.1581 21.4266 18.1245 21.3557 18.0729C21.2848 18.0213 21.2275 17.9532 21.1888 17.8745L20.0001 15.4631L18.8109 17.874C18.7722 17.9526 18.7149 18.0207 18.644 18.0723C18.5731 18.1239 18.4907 18.1575 18.4039 18.1702L15.7439 18.5567L17.6682 20.4323C17.7309 20.4935 17.7778 20.5691 17.8048 20.6524C17.8319 20.7357 17.8382 20.8244 17.8234 20.9107L17.3688 23.5594L19.7472 22.3086C19.8252 22.2679 19.9121 22.2471 20.0001 22.248Z" fill="#1E3864"/>
</svg>
