<svg width="40" height="40" viewBox="0 0 40 40" fill="none" xmlns="http://www.w3.org/2000/svg">
<g clip-path="url(#clip0)">
<path d="M39.4627 15.0759C39.2489 14.8621 38.9856 14.7044 38.6961 14.6169C38.4067 14.5294 38.1001 14.5147 37.8036 14.5742C37.5072 14.6338 37.23 14.7656 36.9968 14.9581C36.7635 15.1506 36.5815 15.3977 36.4668 15.6775L34.1099 21.4275L33.8458 21.1634C33.442 20.7603 32.8947 20.5339 32.3241 20.5339C31.7535 20.5339 31.2063 20.7603 30.8024 21.1634L29.019 22.9472C28.3046 23.659 27.3753 24.1153 26.3752 24.2453L26.338 24.2503C25.3857 24.3924 24.5167 24.8737 23.8912 25.6058C23.2657 26.3378 22.9258 27.2712 22.934 28.234V35.4953H21.4546C21.3095 35.4953 21.1705 35.5529 21.0679 35.6555C20.9653 35.758 20.9077 35.8971 20.9077 36.0422V39.4531C20.9077 39.5981 20.9653 39.7372 21.0679 39.8398C21.1705 39.9424 21.3095 40 21.4546 40H31.294C31.439 40 31.5781 39.9424 31.6807 39.8398C31.7832 39.7372 31.8408 39.5981 31.8408 39.4531V36.0422C31.8408 35.8971 31.7832 35.758 31.6807 35.6555C31.5781 35.5529 31.439 35.4953 31.294 35.4953H29.8146V30.714L33.2918 29.3572C34.138 29.0282 34.9062 28.5262 35.5474 27.8834L35.6202 27.8106C36.3515 27.0776 36.8999 26.1827 37.2212 25.1984L39.9377 16.8497C39.9421 16.8368 39.9458 16.824 39.949 16.8109C40.0231 16.5043 40.0174 16.1837 39.9322 15.88C39.8471 15.5762 39.6854 15.2993 39.4627 15.0759ZM30.7471 38.9062H22.0002V36.589H30.7471V38.9062ZM38.889 16.5334L36.1812 24.8603C35.9133 25.6807 35.4562 26.4265 34.8468 27.0375L34.774 27.11C34.2395 27.6457 33.5992 28.0642 32.894 28.3387L29.069 29.8312C28.9664 29.8713 28.8784 29.9413 28.8163 30.0322C28.7542 30.123 28.7209 30.2305 28.7208 30.3406V35.4953H24.0277V28.234C24.0203 27.5313 24.268 26.8496 24.725 26.3157C25.182 25.7817 25.8172 25.4317 26.5127 25.3306C27.7533 25.1696 28.9061 24.6035 29.7921 23.7203L31.5755 21.9368C31.7772 21.7444 32.0452 21.637 32.324 21.637C32.6027 21.637 32.8708 21.7444 33.0724 21.9368L33.5308 22.3956L29.5418 26.385C29.491 26.4357 29.4507 26.496 29.4233 26.5623C29.3958 26.6287 29.3817 26.6997 29.3817 26.7715C29.3817 26.8433 29.3958 26.9144 29.4233 26.9807C29.4507 27.0471 29.491 27.1073 29.5418 27.1581C29.5925 27.2089 29.6528 27.2491 29.7191 27.2766C29.7855 27.3041 29.8566 27.3182 29.9283 27.3182C30.0001 27.3182 30.0712 27.3041 30.1375 27.2766C30.2039 27.2491 30.2641 27.2089 30.3149 27.1581L34.6899 22.7831C34.701 22.7705 34.7114 22.7574 34.7212 22.7437C34.7308 22.7332 34.7399 22.7221 34.7483 22.7106C34.7716 22.6782 34.7912 22.6433 34.8068 22.6065V22.604V22.6022L37.4787 16.0937C37.525 15.9806 37.5986 15.8807 37.6929 15.8028C37.7871 15.725 37.8992 15.6717 38.0191 15.6477C38.139 15.6237 38.2629 15.6297 38.3799 15.6652C38.4969 15.7008 38.6033 15.7646 38.6896 15.8512C38.777 15.9393 38.8411 16.0479 38.8759 16.167C38.9107 16.2861 38.9152 16.4121 38.889 16.5334Z" fill="#1E3864"/>
<path d="M18.5457 35.4955H17.0663V28.2343C17.0746 27.2716 16.7349 26.3383 16.1097 25.6063C15.4845 24.8742 14.6159 24.3926 13.6638 24.2502L13.6266 24.2452C12.626 24.1156 11.6961 23.6593 10.9813 22.9471L9.19787 21.1637C8.79402 20.7606 8.24674 20.5342 7.67615 20.5342C7.10556 20.5342 6.55828 20.7606 6.15443 21.1637L5.89037 21.4277L3.53349 15.6777C3.35819 15.2484 3.02684 14.9013 2.60606 14.7063C2.18528 14.5113 1.70627 14.4828 1.26535 14.6266C0.824428 14.7703 0.454288 15.0757 0.22935 15.4813C0.00441319 15.8869 -0.0586413 16.3625 0.0528651 16.8127C0.0559901 16.8258 0.0597401 16.8387 0.0641151 16.8515L2.77911 25.1987C3.10035 26.183 3.64891 27.0779 4.38036 27.8108L4.45286 27.8836C5.09409 28.5265 5.86246 29.0285 6.7088 29.3574L10.1857 30.7143V35.4955H8.7063C8.56126 35.4955 8.42216 35.5531 8.3196 35.6557C8.21704 35.7583 8.15943 35.8974 8.15943 36.0424V39.4533C8.15943 39.5984 8.21704 39.7375 8.3196 39.84C8.42216 39.9426 8.56126 40.0002 8.7063 40.0002H18.5457C18.6175 40.0002 18.6886 39.9861 18.755 39.9587C18.8214 39.9312 18.8817 39.8909 18.9325 39.8401C18.9833 39.7893 19.0235 39.729 19.051 39.6627C19.0785 39.5963 19.0926 39.5252 19.0926 39.4533V36.0424C19.0926 35.9706 19.0785 35.8994 19.051 35.8331C19.0235 35.7667 18.9833 35.7064 18.9325 35.6556C18.8817 35.6048 18.8214 35.5645 18.755 35.5371C18.6886 35.5096 18.6175 35.4955 18.5457 35.4955ZM10.9313 29.8315L7.10662 28.339C6.40126 28.0645 5.76087 27.646 5.2263 27.1102L5.1538 27.0377C4.54425 26.4268 4.08703 25.6809 3.81911 24.8605L1.1113 16.5337C1.08498 16.4119 1.08961 16.2855 1.12477 16.166C1.15993 16.0465 1.22449 15.9377 1.31255 15.8496C1.39891 15.7631 1.50532 15.6993 1.6223 15.6639C1.73929 15.6285 1.86321 15.6225 1.98305 15.6466C2.10288 15.6707 2.2149 15.724 2.30914 15.8018C2.40338 15.8797 2.47691 15.9796 2.52318 16.0927L5.18755 22.6005V22.6024V22.6049C5.2031 22.6417 5.2227 22.6766 5.24599 22.709C5.25444 22.7205 5.26352 22.7316 5.27318 22.7421C5.2828 22.7558 5.29324 22.769 5.30443 22.7815L9.67943 27.1565C9.73019 27.2072 9.79046 27.2475 9.85678 27.275C9.92311 27.3024 9.9942 27.3166 10.066 27.3166C10.1378 27.3166 10.2089 27.3024 10.2752 27.275C10.3415 27.2475 10.4018 27.2072 10.4526 27.1565C10.5033 27.1057 10.5436 27.0454 10.5711 26.9791C10.5985 26.9128 10.6127 26.8417 10.6127 26.7699C10.6127 26.6981 10.5985 26.627 10.5711 26.5607C10.5436 26.4944 10.5033 26.4341 10.4526 26.3833L6.4688 22.3958L6.92787 21.9377C7.12947 21.7453 7.39745 21.6379 7.67615 21.6379C7.95484 21.6379 8.22283 21.7453 8.42443 21.9377L10.2082 23.7212C11.1025 24.6104 12.2665 25.178 13.5179 25.3349C14.2077 25.4415 14.836 25.7935 15.287 26.3263C15.738 26.8592 15.9814 27.5369 15.9726 28.2349V35.4961H11.2794V30.3408C11.2794 30.2307 11.2462 30.1232 11.1841 30.0323C11.122 29.9414 11.0339 29.8714 10.9313 29.8315ZM18.0001 38.9065H9.25318V36.5893H18.0001V38.9065Z" fill="#1E3864"/>
<path d="M26.1874 20.7564C26.2288 20.6564 26.2396 20.5465 26.2186 20.4404C26.1975 20.3344 26.1454 20.2369 26.069 20.1604L17.3096 11.4026L21.1561 9.81917C22.7786 9.1521 24.2545 8.17308 25.4999 6.93761C25.5674 6.87069 25.6164 6.78733 25.6419 6.69574C25.6674 6.60415 25.6686 6.5075 25.6454 6.4153C25.6222 6.3231 25.5753 6.23854 25.5095 6.16996C25.4436 6.10137 25.3611 6.05113 25.2699 6.02417L24.7718 5.8773C25.1968 5.49214 25.5367 5.02245 25.7698 4.49831C26.0028 3.97417 26.1237 3.40714 26.1249 2.83355C26.1247 2.71444 26.0857 2.59863 26.0138 2.50367C25.9419 2.40871 25.841 2.33977 25.7265 2.3073C25.9885 1.75744 26.1246 1.15608 26.1249 0.546983C26.125 0.448584 26.0986 0.351967 26.0485 0.267309C25.9983 0.18265 25.9263 0.113083 25.8399 0.0659327C25.7535 0.0187824 25.656 -0.00420588 25.5577 -0.000611254C25.4594 0.00298337 25.3638 0.0330279 25.2811 0.0863583L19.4405 3.82792C19.4839 3.2728 19.3992 2.71514 19.193 2.19792C19.1592 2.11281 19.1045 2.03757 19.034 1.97909C18.9635 1.92061 18.8795 1.88077 18.7896 1.86323C18.7633 1.85796 18.7367 1.85482 18.7099 1.85386C18.733 1.33822 18.6464 0.823543 18.4558 0.343858C18.4194 0.252788 18.3592 0.173185 18.2814 0.11338C18.2037 0.0535757 18.1113 0.0157692 18.0139 0.00391757C17.9165 -0.00793406 17.8178 0.00660498 17.7279 0.046013C17.6381 0.0854209 17.5605 0.148249 17.5033 0.227921L12.754 6.84698L11.1768 5.2698C10.7224 4.81266 10.1819 4.45022 9.58643 4.20347C8.99101 3.95672 8.35254 3.83056 7.70802 3.8323C7.18478 3.83302 6.68145 4.03294 6.30032 4.39143C5.91919 4.74992 5.68886 5.24008 5.65614 5.7623C5.30079 6.02043 5.00655 6.35355 4.79426 6.73806C4.58197 7.12256 4.45683 7.54905 4.4277 7.9873L4.38989 8.55855C4.3819 8.67794 4.41335 8.79664 4.47941 8.89641C4.54547 8.99618 4.64248 9.07148 4.75552 9.11073C4.81319 9.13133 4.87396 9.1419 4.9352 9.14198C5.02374 9.14195 5.11095 9.12047 5.18937 9.07938C5.26779 9.03829 5.33509 8.97882 5.38552 8.90605C5.76131 8.3616 6.3216 7.97172 6.9627 7.80855C7.20001 7.90191 7.45269 7.95003 7.7077 7.95042C7.9863 7.95042 8.25352 8.06094 8.45072 8.25773C8.64792 8.45453 8.759 8.72151 8.75958 9.00011V10.4273C8.7614 12.0888 9.4222 13.6817 10.597 14.8565C11.7718 16.0314 13.3647 16.6923 15.0261 16.6942C15.3366 16.6934 15.6431 16.763 15.9227 16.8977C16.2024 17.0325 16.4478 17.229 16.6405 17.4723L19.3593 20.8876C19.4105 20.9519 19.4755 21.0039 19.5496 21.0396C19.6237 21.0753 19.7049 21.0939 19.7871 21.0939H25.6805C25.7889 21.0941 25.895 21.0622 25.9852 21.0021C26.0755 20.942 26.1458 20.8565 26.1874 20.7564ZM17.6058 1.96136C17.5469 2.52521 17.3027 3.05363 16.9115 3.46386C16.8607 3.51554 16.8207 3.57679 16.7937 3.64407C16.7668 3.71134 16.7536 3.7833 16.7547 3.85575C16.7558 3.92819 16.7714 3.99969 16.8004 4.06609C16.8294 4.13249 16.8713 4.19247 16.9237 4.24253C16.976 4.29259 17.0378 4.33175 17.1055 4.35772C17.1731 4.38369 17.2453 4.39596 17.3177 4.39381C17.3901 4.39167 17.4614 4.37515 17.5274 4.34523C17.5934 4.3153 17.6528 4.27256 17.7021 4.21948L18.3583 3.53198C18.3592 3.93853 18.2628 4.33938 18.0771 4.70105L13.569 7.58855L17.6058 1.96136ZM20.0515 20.0001L17.4961 16.791C17.2014 16.4189 16.8261 16.1185 16.3985 15.9122C15.9709 15.706 15.5021 15.5994 15.0274 15.6004C13.6557 15.5992 12.3406 15.0538 11.3706 14.084C10.4006 13.1143 9.8549 11.7993 9.85333 10.4276V9.00011C9.85267 8.43153 9.62649 7.88644 9.22441 7.48443C8.82234 7.08241 8.27722 6.85631 7.70864 6.85573C7.45287 6.85573 7.20758 6.75413 7.02673 6.57328C6.84587 6.39242 6.74427 6.14713 6.74427 5.89136C6.74427 5.63559 6.84587 5.3903 7.02673 5.20944C7.20758 5.02859 7.45287 4.92698 7.70864 4.92698C8.20927 4.92562 8.7052 5.02355 9.16774 5.2151C9.63028 5.40664 10.0502 5.68801 10.4033 6.04292L13.0624 8.70198C13.1506 8.79008 13.2662 8.84541 13.3902 8.85882C13.5141 8.87223 13.6389 8.84292 13.744 8.77573L24.803 1.6923C24.5126 2.39741 23.9664 2.96671 23.274 3.28605L23.2702 3.28792C23.1449 3.35218 23.0492 3.46233 23.003 3.5954C22.9569 3.72848 22.9639 3.87422 23.0225 4.00228C23.0812 4.13033 23.187 4.23082 23.3179 4.28281C23.4488 4.3348 23.5947 4.33428 23.7252 4.28136L24.8861 3.75011C24.758 4.14951 24.5482 4.51789 24.27 4.83181C23.9918 5.14573 23.6513 5.39833 23.2702 5.57355C23.169 5.61994 23.0844 5.69612 23.0276 5.7919C22.9708 5.88768 22.9447 5.99851 22.9526 6.10956C22.9605 6.22061 23.0021 6.32661 23.0719 6.41337C23.1417 6.50013 23.2363 6.56354 23.343 6.59511L24.0343 6.79948C23.0479 7.63761 21.9356 8.31509 20.7383 8.80698L16.1343 10.7035C16.051 10.7378 15.9775 10.7921 15.9203 10.8616C15.8631 10.9311 15.824 11.0137 15.8063 11.102C15.7887 11.1902 15.7932 11.2815 15.8193 11.3676C15.8454 11.4538 15.8924 11.5321 15.9561 11.5957L24.3602 20.0001H20.0515Z" fill="#1E3864"/>
</g>
<defs>
<clipPath id="clip0">
<rect width="40" height="40" fill="white"/>
</clipPath>
</defs>
</svg>
