<svg width="40" height="40" viewBox="0 0 40 40" fill="none" xmlns="http://www.w3.org/2000/svg">
<g clip-path="url(#clip0)">
<path d="M36.757 14.6075C37.0415 13.8621 37.1903 13.0647 37.1903 12.2654C37.1903 8.64686 34.2464 5.70296 30.6278 5.70296C29.4106 5.70296 28.2472 6.03132 27.2236 6.65608C27.1215 6.55382 27.0179 6.45265 26.9118 6.35351C24.5831 4.17531 21.5436 2.97571 18.3532 2.97571C11.4428 2.97571 5.82076 8.59772 5.82076 15.5082C5.82076 15.8573 5.83545 16.2079 5.86474 16.5575C5.82388 16.5567 5.78302 16.5562 5.74217 16.5562C2.57593 16.5562 0 19.1321 0 22.2984C0 25.4646 2.57593 28.0405 5.74217 28.0405H17.3251C17.7566 28.0405 18.1063 27.6908 18.1063 27.2593C18.1063 26.8278 17.7566 26.478 17.3251 26.478H5.74217C3.43749 26.478 1.56249 24.603 1.56249 22.2984C1.56249 19.9937 3.43749 18.1187 5.74217 18.1187C6.02795 18.1187 6.31451 18.1482 6.59411 18.206C8.52434 18.6053 9.92184 20.3203 9.92184 22.2983C9.92184 22.7298 10.2716 23.0795 10.7031 23.0795C11.1346 23.0795 11.4843 22.7298 11.4843 22.2983C11.4843 19.7734 9.82551 17.5608 7.46208 16.8197C7.40997 16.3839 7.38333 15.9446 7.38333 15.5081C7.38333 9.4592 12.3044 4.53812 18.3533 4.53812C24.0827 4.53812 28.8888 9.00967 29.2947 14.7181C29.3125 14.9703 29.4514 15.1982 29.6672 15.3298C29.8831 15.4614 30.1493 15.4803 30.3816 15.3808C31.102 15.0721 31.8673 14.9156 32.6563 14.9156C35.8441 14.9156 38.4375 17.509 38.4375 20.6968C38.4375 23.8846 35.8441 26.478 32.6563 26.478H24.453C24.0215 26.478 23.6718 26.8278 23.6718 27.2593C23.6718 27.6908 24.0215 28.0405 24.453 28.0405H32.6563C36.7056 28.0405 40 24.7462 40 20.6968C40 18.1649 38.7121 15.9282 36.757 14.6075ZM35.3622 13.8697C34.5244 13.5365 33.6114 13.3531 32.6563 13.3531C32.0031 13.353 31.3623 13.4376 30.7415 13.6054C30.4211 11.5019 29.5721 9.5281 28.2761 7.85209C28.9952 7.46639 29.7951 7.26538 30.6279 7.26538C33.3849 7.26538 35.6279 9.50834 35.6279 12.2654C35.6279 12.8193 35.5374 13.3561 35.3622 13.8697Z" fill="#1E3864"/>
<path d="M21.5165 26.7071C21.3704 26.561 21.1688 26.4781 20.9634 26.4781C20.7579 26.4781 20.5563 26.561 20.411 26.7071C20.2657 26.8524 20.1821 27.0539 20.1821 27.2594C20.1821 27.4649 20.2657 27.6656 20.411 27.8117C20.5563 27.9571 20.7579 28.0406 20.9634 28.0406C21.1696 28.0406 21.3704 27.9571 21.5165 27.8117C21.6618 27.6664 21.7446 27.4649 21.7446 27.2594C21.7446 27.0531 21.6618 26.8524 21.5165 26.7071Z" fill="#1E3864"/>
<path d="M39.7306 3.16265C39.4255 2.85757 38.9308 2.85757 38.6257 3.16265L36.2229 5.56537C35.9179 5.87045 35.9179 6.36513 36.2229 6.67029C36.3755 6.82286 36.5755 6.89911 36.7754 6.89911C36.9754 6.89911 37.1754 6.82286 37.3279 6.67029L39.7306 4.26756C40.0357 3.96249 40.0357 3.4678 39.7306 3.16265Z" fill="#1E3864"/>
<path d="M30.6279 1.24365C30.1964 1.24365 29.8467 1.59342 29.8467 2.0249V3.7152C29.8467 4.14669 30.1964 4.49645 30.6279 4.49645C31.0594 4.49645 31.4092 4.14669 31.4092 3.7152V2.0249C31.4092 1.59334 31.0594 1.24365 30.6279 1.24365Z" fill="#1E3864"/>
<path d="M39.2187 11.484H38.8394C38.4079 11.484 38.0581 11.8338 38.0581 12.2653C38.0581 12.6967 38.4079 13.0465 38.8394 13.0465H39.2187C39.6502 13.0465 40 12.6967 40 12.2653C40 11.8338 39.6502 11.484 39.2187 11.484Z" fill="#1E3864"/>
<path d="M6.55189 28.9817C6.24681 28.6767 5.75213 28.6767 5.44705 28.9817L3.05745 31.3713C2.75237 31.6763 2.7523 32.171 3.05745 32.4761C3.21003 32.6287 3.40995 32.7049 3.60987 32.7049C3.80979 32.7049 4.00979 32.6286 4.16229 32.4761L6.55189 30.0866C6.85696 29.7813 6.85696 29.2867 6.55189 28.9817Z" fill="#1E3864"/>
<path d="M16.6818 28.9817C16.3768 28.6767 15.8821 28.6767 15.577 28.9817L13.2025 31.3562C12.8974 31.6613 12.8973 32.1559 13.2025 32.461C13.355 32.6136 13.555 32.6898 13.7549 32.6898C13.9548 32.6898 14.1548 32.6135 14.3073 32.461L16.6818 30.0866C16.9869 29.7813 16.987 29.2867 16.6818 28.9817Z" fill="#1E3864"/>
<path d="M26.8121 28.9817C26.507 28.6767 26.0124 28.6767 25.7073 28.9817L23.3587 31.3302C23.0536 31.6353 23.0536 32.13 23.3587 32.4351C23.5113 32.5877 23.7112 32.6639 23.9111 32.6639C24.1111 32.6639 24.3111 32.5876 24.4636 32.4351L26.8121 30.0866C27.1172 29.7813 27.1172 29.2867 26.8121 28.9817Z" fill="#1E3864"/>
<path d="M9.50666 33.9037C9.20166 33.5987 8.70698 33.5987 8.4019 33.9037L4.88262 37.4229C4.57754 37.7279 4.57754 38.2226 4.88262 38.5278C5.03519 38.6804 5.23511 38.7566 5.43504 38.7566C5.63496 38.7566 5.83496 38.6804 5.98746 38.5278L9.50666 35.0086C9.81174 34.7036 9.81174 34.2089 9.50666 33.9037Z" fill="#1E3864"/>
<path d="M19.637 33.9036C19.332 33.5985 18.8373 33.5985 18.5322 33.9036L15.013 37.4228C14.7079 37.7279 14.7079 38.2226 15.013 38.5277C15.1656 38.6803 15.3655 38.7566 15.5654 38.7566C15.7653 38.7566 15.9653 38.6803 16.1178 38.5277L19.637 35.0085C19.9421 34.7035 19.9421 34.2088 19.637 33.9036Z" fill="#1E3864"/>
<path d="M29.7675 33.9037C29.4624 33.5986 28.9677 33.5987 28.6626 33.9037L25.1434 37.4229C24.8383 37.728 24.8383 38.2227 25.1434 38.5278C25.2959 38.6803 25.4959 38.7566 25.6958 38.7566C25.8957 38.7566 26.0957 38.6803 26.2482 38.5278L29.7675 35.0085C30.0726 34.7035 30.0726 34.2088 29.7675 33.9037Z" fill="#1E3864"/>
<path d="M36.9424 28.9816C36.6372 28.6765 36.1426 28.6766 35.8376 28.9816L33.5155 31.3038C33.2104 31.6088 33.2103 32.1035 33.5155 32.4086C33.668 32.5612 33.868 32.6374 34.0679 32.6374C34.2678 32.6374 34.4678 32.5611 34.6203 32.4086L36.9424 30.0865C37.2475 29.7813 37.2476 29.2867 36.9424 28.9816Z" fill="#1E3864"/>
<path d="M18.3766 6.52441H18.3535C17.922 6.52441 17.5723 6.87418 17.5723 7.30566C17.5723 7.73714 17.922 8.08691 18.3535 8.08691H18.3669C18.3685 8.08691 18.3702 8.08691 18.3719 8.08691C18.801 8.08699 19.1503 7.74035 19.153 7.31058C19.1557 6.87918 18.8081 6.52723 18.3766 6.52441Z" fill="#1E3864"/>
<path d="M27.039 14.6072C26.8084 11.3627 24.8087 8.54071 21.8203 7.24227C21.4248 7.07032 20.9645 7.25181 20.7924 7.64751C20.6205 8.04321 20.802 8.50344 21.1977 8.67539C23.6502 9.74094 25.2912 12.0563 25.4805 14.7179C25.5098 15.1295 25.8527 15.4439 26.2589 15.4439C26.2775 15.4439 26.2963 15.4433 26.3151 15.4418C26.7455 15.4112 27.0696 15.0375 27.039 14.6072Z" fill="#1E3864"/>
</g>
<defs>
<clipPath id="clip0">
<rect width="40" height="40" fill="white" transform="translate(0 0.00012207)"/>
</clipPath>
</defs>
</svg>
