<svg width="40" height="40" viewBox="0 0 40 40" fill="none" xmlns="http://www.w3.org/2000/svg">
<path d="M36.8831 35.0439L30.7573 24.4349C33.1529 21.834 34.5902 18.3775 34.5902 14.5788C34.5902 10.5405 32.9475 6.91295 30.3124 4.27782C27.6773 1.64268 24.0497 0 20.0114 0C15.9732 0 12.3456 1.64268 9.71043 4.27782C7.07529 6.91295 5.43261 10.5405 5.43261 14.5788C5.43261 18.3775 6.86996 21.834 9.26554 24.4349L3.1397 35.0439C3.03703 35.215 3.00281 35.4546 3.07125 35.6941C3.20814 36.0706 3.61881 36.2417 3.99526 36.1048L8.88909 34.1541L9.64198 39.3902C9.67621 39.5955 9.77887 39.8008 9.98421 39.9035C10.3264 40.1088 10.7713 39.9719 10.9767 39.6297L17.1709 28.9181C18.0607 29.0892 19.019 29.1918 19.943 29.1918C20.9012 29.1918 21.8252 29.0892 22.715 28.9181L28.9093 39.6297C29.1146 39.9719 29.5595 40.0746 29.9017 39.9035C30.1071 39.8008 30.2097 39.5955 30.244 39.3902L30.9969 34.1541L35.8907 36.1048C36.2671 36.2417 36.6778 36.0706 36.8147 35.6941C37.02 35.4546 36.9858 35.215 36.8831 35.0439ZM10.8398 37.0972L10.2238 33.0248C10.1553 32.6483 9.8131 32.3745 9.40243 32.4088C9.33398 32.4088 9.26554 32.443 9.19709 32.4772L5.39839 33.983L10.3264 25.4616C11.8664 26.8305 13.7145 27.8914 15.7678 28.5074L10.8398 37.0972ZM20.0114 27.7203C16.3838 27.7203 13.0985 26.2487 10.7371 23.8873C8.37575 21.526 6.90418 18.2406 6.90418 14.613C6.90418 10.9854 8.37575 7.70007 10.7371 5.33872C13.0985 2.90892 16.3838 1.43735 20.0114 1.43735C23.639 1.43735 26.9244 2.90892 29.2857 5.27027C31.6471 7.63163 33.1187 10.917 33.1187 14.5446C33.1187 18.1722 31.6471 21.4575 29.2857 23.8189C26.9244 26.2487 23.639 27.7203 20.0114 27.7203ZM30.8257 32.4772C30.7573 32.443 30.6889 32.4088 30.6204 32.4088C30.244 32.3403 29.8675 32.6141 29.7991 33.0248L29.1831 37.0972L24.255 28.5074C26.3084 27.8914 28.1564 26.8305 29.6964 25.4616L34.6244 33.983L30.8257 32.4772Z" fill="#1E3864"/>
<path d="M26.719 12.0463C26.5479 11.8068 26.3425 11.6357 26.103 11.533C25.8634 11.4303 25.5896 11.3619 25.3159 11.3961H22.4754L21.5856 8.58985C21.4487 8.17918 21.1407 7.83696 20.7985 7.63162C20.5589 7.52896 20.3194 7.46051 20.0456 7.46051C19.7718 7.46051 19.5323 7.52896 19.2927 7.63162C18.9162 7.83696 18.6425 8.14496 18.5056 8.58985L17.6158 11.3961H14.7753C14.5015 11.3619 14.2278 11.4303 13.9882 11.533C13.7486 11.6357 13.5433 11.8068 13.3722 12.0463C13.0984 12.4228 13.03 12.8335 13.0984 13.2441C13.1669 13.6548 13.3722 14.0312 13.7486 14.305L16.1442 16.0161L15.2202 18.8224C15.2202 18.8566 15.2202 18.8908 15.186 18.8908C15.1175 19.0962 15.1175 19.3357 15.1518 19.5753C15.186 19.8149 15.2887 20.0544 15.4598 20.2597C15.7336 20.6362 16.11 20.8415 16.5207 20.91C16.9313 20.9784 17.3762 20.8758 17.7185 20.602L20.114 18.8566L22.5096 20.602C22.8861 20.8758 23.2967 20.9442 23.7074 20.91C24.1181 20.8415 24.4945 20.6362 24.7683 20.2597C24.9394 20.0544 25.0079 19.8149 25.0763 19.5753C25.1105 19.3357 25.1105 19.1304 25.0421 18.8908C25.0421 18.8566 25.0421 18.8224 25.0079 18.8224L24.0839 16.0161L26.4794 14.305C26.8559 14.0312 27.0612 13.6548 27.1297 13.2441C27.0954 12.8677 26.9928 12.4228 26.719 12.0463ZM25.5212 13.1415L25.487 13.1757L22.715 15.1948C22.4754 15.3659 22.3385 15.7081 22.4412 15.9819L23.5021 19.2331V19.2673C23.5021 19.3015 23.5021 19.3357 23.5021 19.37C23.5021 19.4042 23.5021 19.4384 23.4678 19.4384C23.4336 19.4726 23.3994 19.5068 23.331 19.5068C23.2967 19.5068 23.2283 19.5068 23.1941 19.4726L20.3878 17.4193C20.2509 17.3166 20.114 17.2824 19.9429 17.2824C19.806 17.2824 19.6349 17.3166 19.498 17.4193L16.6918 19.4726C16.6576 19.5068 16.5891 19.5068 16.5549 19.5068C16.5207 19.5068 16.4522 19.4726 16.418 19.4384C16.3838 19.4042 16.3838 19.37 16.3838 19.37C16.3838 19.3357 16.3838 19.3015 16.3838 19.2673V19.2331L17.4447 15.9819C17.5473 15.6739 17.4447 15.3659 17.1709 15.1948L14.5358 13.1757L14.5015 13.1415C14.4673 13.1072 14.4331 13.073 14.4331 13.0388C14.4331 13.0046 14.4331 12.9361 14.4673 12.9019C14.4673 12.9019 14.4673 12.8677 14.5015 12.8677C14.5358 12.8335 14.5358 12.8335 14.57 12.8335C14.6042 12.8335 14.6384 12.7992 14.6727 12.7992C14.7069 12.7992 14.7411 12.7992 14.7753 12.7992H18.1291C18.4371 12.7992 18.7109 12.5939 18.8136 12.2859L19.8745 9.00053C19.8745 8.9663 19.9087 8.89786 19.9771 8.89786C20.0114 8.89786 20.0456 8.86364 20.0456 8.86364C20.0798 8.86364 20.114 8.86364 20.114 8.89786C20.1483 8.93208 20.1825 8.9663 20.2167 9.00053L21.2776 12.2859C21.3803 12.5597 21.6541 12.7992 21.9621 12.7992H25.3159C25.3501 12.7992 25.3843 12.7992 25.4185 12.7992C25.4528 12.7992 25.487 12.7992 25.5212 12.8335C25.5554 12.8335 25.5554 12.8677 25.5896 12.8677C25.5896 12.8677 25.5896 12.9019 25.6239 12.9019C25.6581 12.9361 25.6581 12.9703 25.6581 13.0388C25.5896 13.073 25.5554 13.1072 25.5212 13.1415Z" fill="#1E3864"/>
<path d="M28.0536 6.53651C26.0002 4.48315 23.1598 3.21692 20.0113 3.21692C16.8628 3.21692 14.0224 4.48315 11.969 6.53651C9.91565 8.58986 8.64941 11.4303 8.64941 14.5788C8.64941 17.7273 9.91565 20.5677 11.969 22.6211C14.0224 24.6745 16.8628 25.9407 20.0113 25.9407C23.1598 25.9407 26.0002 24.6745 28.0536 22.6211C30.1069 20.5677 31.3732 17.7273 31.3732 14.5788C31.3732 11.4303 30.1069 8.58986 28.0536 6.53651ZM27.0611 21.5944C25.2473 23.4082 22.7491 24.5033 20.0113 24.5033C17.2735 24.5033 14.7752 23.374 12.9957 21.5944C11.1819 19.7806 10.0868 17.3166 10.0868 14.5788C10.0868 11.841 11.2161 9.34275 12.9957 7.56318C14.7752 5.74939 17.2735 4.62004 20.0113 4.62004C22.7491 4.62004 25.2473 5.74939 27.0269 7.52896C28.8407 9.34275 29.9358 11.8068 29.9358 14.5446C29.9358 17.2824 28.8407 19.8149 27.0611 21.5944Z" fill="#1E3864"/>
</svg>
