<svg width="40" height="40" viewBox="0 0 40 40" fill="none" xmlns="http://www.w3.org/2000/svg">
<g clip-path="url(#clip0)">
<path d="M1.56249 16.1058C1.56249 13.8938 2.10429 11.8073 3.17272 9.90415C3.38397 9.5279 3.25014 9.05165 2.87397 8.84048C2.49772 8.62939 2.02148 8.7629 1.81031 9.13923C0.626013 11.2487 0 13.6577 0 16.1058C0 18.984 0.725466 22.0942 1.9903 24.6387C3.241 27.1546 3.5753 30.0099 2.93171 32.6788L1.77991 37.4555C1.67882 37.875 1.93687 38.297 2.35632 38.3981C2.4178 38.4129 2.47944 38.42 2.54007 38.42C2.89272 38.42 3.21264 38.1796 3.29897 37.8218L4.45076 33.0451C5.18029 30.0198 4.80342 26.7874 3.3896 23.9432C2.22835 21.6075 1.56249 18.7508 1.56249 16.1058Z" fill="#1E3864"/>
<path d="M39.5793 23.0237L21.399 13.5605L39.5793 4.09726C39.9619 3.89804 40.1108 3.42632 39.9116 3.04359C39.7123 2.66093 39.2406 2.51195 38.8579 2.71132L27.3959 8.67747C24.7415 4.28296 20.0538 1.58008 14.9992 1.58008C12.1298 1.58008 9.33988 2.36211 6.93107 3.84171C6.56341 4.06757 6.44841 4.54866 6.67427 4.91631C6.90005 5.28389 7.38122 5.39897 7.7488 5.17311C9.9116 3.84476 12.4187 3.14257 14.9993 3.14257C19.472 3.14257 23.6259 5.52327 26.0071 9.40044L20.2576 12.3932C20.0598 11.1579 19.4854 10.0162 18.5913 9.10841C17.4682 7.96818 15.9692 7.32607 14.3703 7.30021C12.7475 7.27357 11.2129 7.87763 10.0518 8.99974C8.89012 10.1224 8.23512 11.6347 8.20755 13.2582C8.20755 13.2627 8.20747 13.2671 8.20747 13.2715V20.4289C8.20747 20.7756 8.4359 21.0808 8.76856 21.1785L15.3985 23.1262C15.4709 23.1475 15.545 23.1579 15.6186 23.1579C15.7855 23.1579 15.9501 23.1044 16.0868 23.0021C16.2838 22.8546 16.3999 22.6228 16.3999 22.3766V20.4511H17.4268C18.7086 20.4511 19.7515 19.4082 19.7515 18.1264V17.393H20.5512C20.7991 17.393 21.0322 17.2754 21.1794 17.076C21.3268 16.8767 21.3708 16.6192 21.298 16.3824L20.8912 15.0574L28.8108 19.1798L30.3435 24.1698H27.2139C26.7825 24.1698 26.4326 24.5196 26.4326 24.9511V28.9621C26.4326 30.785 24.9496 32.268 23.1267 32.268H18.3387C17.9591 32.268 17.6343 32.541 17.5691 32.9149L16.768 37.5041C16.6938 37.9291 16.9781 38.3338 17.4032 38.4081C17.4487 38.416 17.4938 38.4198 17.5384 38.4198C17.911 38.4198 18.2409 38.1524 18.3071 37.7727L18.9953 33.8305H23.1267C25.8111 33.8305 27.9951 31.6465 27.9951 28.9621V25.7323H31.4007C31.6485 25.7323 31.8817 25.6147 32.0289 25.4154C32.1763 25.2161 32.2203 24.9587 32.1475 24.7217L30.7564 20.1925L38.858 24.4096C38.9734 24.4696 39.0966 24.498 39.218 24.498C39.5001 24.498 39.7725 24.3448 39.9117 24.0773C40.1108 23.6948 39.962 23.223 39.5793 23.0237ZM18.9701 15.8306C18.5387 15.8306 18.1888 16.1804 18.1888 16.6119V18.1266C18.1888 18.5468 17.8469 18.8888 17.4266 18.8888H15.6185C15.1871 18.8888 14.8373 19.2385 14.8373 19.67V21.333L9.7698 19.8444V13.2786C9.81535 10.8031 11.8627 8.82458 14.345 8.8627C16.7862 8.90216 18.7722 10.9213 18.7722 13.3636C18.7722 13.4414 18.7838 13.5186 18.8066 13.593L19.4938 15.8307H18.9701V15.8306Z" fill="#1E3864"/>
<path d="M4.59619 7.48674C4.38986 7.48674 4.18916 7.40315 4.04385 7.25784C3.89853 7.11174 3.81494 6.91096 3.81494 6.70549C3.81494 6.49924 3.89846 6.29846 4.04385 6.15237C4.18916 6.00706 4.38994 5.92346 4.59619 5.92346C4.80166 5.92346 5.00322 6.00706 5.14846 6.15237C5.29377 6.29846 5.37744 6.49924 5.37744 6.70549C5.37744 6.91096 5.29385 7.11174 5.14846 7.25784C5.00322 7.40307 4.80166 7.48674 4.59619 7.48674Z" fill="#1E3864"/>
</g>
<defs>
<clipPath id="clip0">
<rect width="40" height="40" fill="white" transform="translate(0 0.00012207)"/>
</clipPath>
</defs>
</svg>
