<svg width="40" height="40" viewBox="0 0 40 40" fill="none" xmlns="http://www.w3.org/2000/svg">
<g clip-path="url(#clip0)">
<path d="M22.2669 29.8666C22.5236 30.0592 22.881 30.0415 23.1175 29.8246L31.1175 22.4913C31.3889 22.2424 31.4071 21.8207 31.1582 21.5493C30.9093 21.2779 30.4876 21.2597 30.2162 21.5086L22.6242 28.4666L20.4002 26.8C20.1057 26.5791 19.6878 26.6388 19.4669 26.9333C19.246 27.2279 19.3056 27.6457 19.6002 27.8666L22.2669 29.8666Z" fill="#1E3864"/>
<path d="M0.666667 10C1.60917 10.0683 2.51352 10.4 3.27667 10.9573C3.66512 11.2446 4.01254 11.5835 4.30933 11.9647C1.74667 16.4733 0.302667 20.744 0.0346667 24.6607C-0.225271 28.5936 1.11563 32.4646 3.75267 35.394C6.2379 38.1993 9.76521 39.8621 13.5107 39.994C13.6673 39.9993 13.8233 40.0013 13.9773 40.0013C17.6794 39.9977 21.2284 38.5239 23.844 35.904C26.2382 36.2676 28.6841 35.7815 30.7573 34.53L35.4467 39.2187C36.4966 40.2039 38.139 40.1778 39.1571 39.1597C40.1751 38.1416 40.2012 36.4992 39.216 35.4493L34.5273 30.76C36.4832 27.4635 36.5179 23.3705 34.6182 20.0414C32.7184 16.7122 29.177 14.6598 25.344 14.6667C25.254 14.6667 25.1667 14.678 25.0773 14.68C22.4441 9.4291 19.0232 4.61185 14.9333 0.395334C14.6826 0.142081 14.341 -0.000286221 13.9847 4.32041e-07H13.976C13.6239 0.00287959 13.2876 0.146987 13.0427 0.4C11.3898 2.09828 9.84287 3.89656 8.41067 5.78467C7.63864 4.19236 7.26873 2.43508 7.33333 0.666667C7.33333 0.298477 7.03486 4.32041e-07 6.66667 4.32041e-07C6.29848 4.32041e-07 6 0.298477 6 0.666667C6 8.51267 0.893333 8.66667 0.666667 8.66667C0.298477 8.66667 0 8.96514 0 9.33333C0 9.70152 0.298477 10 0.666667 10ZM38.2753 36.3913C38.7595 36.9173 38.7426 37.7316 38.2371 38.2371C37.7316 38.7426 36.9173 38.7595 36.3913 38.2753L31.882 33.766C32.5859 33.2188 33.2188 32.5859 33.766 31.882L38.2753 36.3913ZM34.6873 25.344C34.6873 29.1234 32.4107 32.5306 28.919 33.9768C25.4273 35.423 21.4082 34.6235 18.7359 31.951C16.0636 29.2785 15.2643 25.2593 16.7108 21.7677C18.1573 18.2762 21.5646 15.9997 25.344 16C30.502 16.0059 34.6818 20.186 34.6873 25.344ZM13.9873 1.33667C17.8564 5.32868 21.1155 9.86954 23.6593 14.8127C18.7441 15.5925 15.0213 19.6678 14.688 24.6333C14.3548 29.5989 17.4997 34.1351 22.2667 35.5647C19.8604 37.6637 16.7466 38.7703 13.5553 38.6607C10.1724 38.5404 6.98685 37.0376 4.74267 34.5033C2.34678 31.842 1.12849 28.3251 1.36467 24.752C1.606 21.224 2.872 17.3673 5.106 13.2787C5.73984 14.7699 6.04477 16.3803 6 18C6 18.3682 6.29848 18.6667 6.66667 18.6667C7.03486 18.6667 7.33333 18.3682 7.33333 18C7.33333 10.1447 12.452 10 12.6667 10C13.0349 10 13.3333 9.70152 13.3333 9.33333C13.3333 8.96514 13.0349 8.66667 12.6667 8.66667C11.7242 8.59834 10.8198 8.26663 10.0567 7.70933C9.74893 7.4799 9.46725 7.21744 9.21667 6.92667C10.685 4.96268 12.2786 3.09547 13.9873 1.33667ZM6.66667 5.12267C6.92808 5.89035 7.30289 6.61459 7.77867 7.27133C7.78877 7.28865 7.7999 7.30535 7.812 7.32133C8.44042 8.1735 9.26323 8.8633 10.212 9.33333C8.51013 10.2006 7.23138 11.7193 6.66667 13.544C6.42717 12.8492 6.09531 12.1897 5.68 11.5833C5.65788 11.5415 5.63104 11.5024 5.6 11.4667C4.96344 10.561 4.11166 9.82793 3.12133 9.33333C4.82321 8.4661 6.10196 6.94738 6.66667 5.12267Z" fill="#1E3864"/>
<path d="M12.1194 35.344C5.38808 34.12 4.69075 26.9167 4.66675 26.6107C4.636 26.2425 4.3126 25.9689 3.94441 25.9997C3.57622 26.0304 3.30267 26.3538 3.33341 26.722C3.34075 26.8067 4.13341 35.2473 11.8787 36.6553C11.9188 36.6628 11.9594 36.6666 12.0001 36.6667C12.3451 36.6666 12.6331 36.4033 12.664 36.0596C12.6948 35.7159 12.4583 35.4055 12.1187 35.344H12.1194Z" fill="#1E3864"/>
</g>
<defs>
<clipPath id="clip0">
<rect width="40" height="40" fill="white"/>
</clipPath>
</defs>
</svg>
