<svg width="50" height="50" viewBox="0 0 50 50" fill="none" xmlns="http://www.w3.org/2000/svg">
<g clip-path="url(#clip0)">
<path d="M42.1451 30.7037C42.1451 28.6103 40.442 26.9072 38.3486 26.9072H37.5544C37.1495 26.9072 36.8212 27.2355 36.8212 27.6403C36.8212 28.0452 37.1495 28.3735 37.5544 28.3735H38.3486C39.6335 28.3735 40.6788 29.4188 40.6788 30.7037C40.6788 31.592 40.1844 32.3911 39.3884 32.789C39.1586 32.9038 39.0056 33.1307 38.9854 33.3869C38.9651 33.643 39.0804 33.8911 39.2893 34.0408C39.8433 34.4374 40.1738 35.0797 40.1738 35.7589C40.1738 36.6257 39.6303 37.4177 38.8212 37.7298C38.5841 37.8213 38.4114 38.0288 38.3645 38.2785C38.3177 38.5281 38.4033 38.7843 38.591 38.9554C38.9875 39.3171 39.2149 39.832 39.2149 40.3681C39.2149 41.2589 38.5845 42.0439 37.7161 42.2347C37.3008 42.3258 36.9993 42.7014 36.9993 43.1328C36.9993 43.4661 37.1819 43.7739 37.476 43.936C38.0747 44.2661 38.4541 44.8944 38.4662 45.5756C38.4752 46.0794 38.2816 46.5588 37.9212 46.9256C37.5488 47.3047 37.0301 47.5221 36.4981 47.5221H20.6914C20.0925 47.5221 19.5034 47.3612 18.9876 47.0567L17.6746 46.2817V42.5907C17.6746 42.1858 17.3464 41.8576 16.9415 41.8576C16.5366 41.8576 16.2084 42.1858 16.2084 42.5907V47.0747C16.2084 47.8789 15.554 48.5333 14.7498 48.5333H3.52658C3.1217 48.5333 2.79346 48.8615 2.79346 49.2664C2.79346 49.6713 3.1217 49.9995 3.52658 49.9995H14.7498C16.0716 49.9995 17.1909 49.1178 17.5519 47.9118L18.2423 48.3192C18.9837 48.7568 19.8306 48.9881 20.6914 48.9881H36.4983C37.4211 48.9881 38.321 48.6108 38.9673 47.9529C39.6056 47.3033 39.9483 46.4496 39.9324 45.5494C39.9172 44.6958 39.5764 43.8895 39.003 43.2848C40.0151 42.69 40.6813 41.5848 40.6813 40.3679C40.6813 39.7501 40.5105 39.1484 40.1974 38.6273C41.0859 37.9611 41.6402 36.898 41.6402 35.7586C41.6402 34.9478 41.3624 34.1681 40.8704 33.5434C41.6732 32.8344 42.1451 31.8117 42.1451 30.7037Z" fill="#1E3864"/>
<path d="M25.3802 7.8823C25.3854 7.88729 25.3877 7.89442 25.3866 7.90136L24.9624 10.4459C24.8687 11.0085 25.0981 11.5651 25.5612 11.8981C25.8209 12.085 26.1237 12.1797 26.4287 12.1797C26.6674 12.1797 26.9073 12.1216 27.1285 12.004L29.4062 10.7928C29.4124 10.7896 29.4198 10.7894 29.4261 10.7928L31.715 11.9824C32.2211 12.2453 32.8212 12.1993 33.2812 11.8618C33.7411 11.5242 33.9652 10.9657 33.8662 10.4038L33.4181 7.86353C33.417 7.85659 33.4192 7.84936 33.4243 7.84447L35.263 6.03523C35.6696 5.63515 35.811 5.05002 35.6323 4.50829C35.4535 3.96657 34.9914 3.58075 34.4265 3.50138L31.872 3.14244C31.865 3.14146 31.8589 3.13707 31.8558 3.13071L30.7034 0.823049C30.4495 0.31485 29.9401 0 29.3726 0C29.3701 0 29.3677 0 29.3654 0C28.7949 0.00263923 28.2852 0.322866 28.0352 0.835561L26.9044 3.15407C26.9013 3.16043 26.8953 3.16483 26.8883 3.1659L24.3372 3.54879C23.7731 3.63353 23.3148 4.02365 23.1411 4.56704C22.9674 5.11043 23.1144 5.69409 23.5247 6.09027L25.3802 7.8823ZM24.5442 5.00163C24.5442 5.00163 24.547 5.00007 24.5548 4.9989L27.106 4.61601C27.5902 4.54319 28.0075 4.23704 28.2222 3.79687L29.3529 1.47826C29.3564 1.47122 29.3587 1.46898 29.3587 1.46898C29.364 1.46526 29.3805 1.46526 29.3856 1.46878C29.3856 1.46878 29.3879 1.47103 29.3916 1.47816L30.5441 3.78593C30.7629 4.22414 31.1831 4.52638 31.6681 4.59451L34.2226 4.95344C34.2303 4.95452 34.2332 4.95598 34.2333 4.95598C34.2384 4.95989 34.2434 4.97553 34.2418 4.98159C34.2418 4.98159 34.2404 4.98453 34.2347 4.9901L32.3961 6.79924C32.0469 7.14273 31.8892 7.63588 31.9743 8.11817L32.4223 10.6585C32.4236 10.6663 32.4232 10.6694 32.4232 10.6694C32.421 10.6755 32.4078 10.6853 32.4015 10.6855C32.4015 10.6855 32.3982 10.6851 32.3912 10.6814L30.1023 9.49174C29.6677 9.26585 29.15 9.26829 28.7177 9.49829L26.44 10.7094C26.4332 10.7131 26.4299 10.7136 26.4299 10.7136C26.4234 10.7135 26.41 10.7038 26.4079 10.6979C26.4079 10.6979 26.4073 10.6947 26.4085 10.6868L26.8327 8.14231C26.9131 7.65924 26.7509 7.16776 26.3986 6.82749L24.543 5.03565C24.5373 5.03018 24.5359 5.02734 24.5359 5.02734C24.5342 5.02128 24.5392 5.00554 24.5442 5.00163Z" fill="#1E3864"/>
<path d="M13.2912 12.6008L12.964 14.5641C12.8799 15.0692 13.0858 15.5688 13.5015 15.8678C13.7347 16.0355 14.0066 16.1206 14.2802 16.1206C14.4945 16.1206 14.7099 16.0684 14.9083 15.9628L16.6658 15.0283L18.4318 15.9462C18.8862 16.1822 19.4249 16.1408 19.8377 15.838C20.2506 15.5349 20.4519 15.0335 20.363 14.5292L20.0172 12.569L21.4359 11.173C21.8009 10.8139 21.928 10.2886 21.7674 9.80235C21.6068 9.31604 21.1922 8.96982 20.685 8.89856L18.7139 8.62163L17.8246 6.84084C17.5967 6.38464 17.1395 6.10205 16.6299 6.10205C16.6279 6.10205 16.6256 6.10205 16.6235 6.10205C16.1114 6.1044 15.6539 6.39178 15.4293 6.85208L14.5568 8.64118L12.5885 8.93668C12.082 9.01273 11.6705 9.36296 11.5146 9.85073C11.3587 10.3385 11.4906 10.8624 11.859 11.218L13.2912 12.6008ZM14.8429 10.081C15.2775 10.0157 15.6521 9.74086 15.8449 9.34576L16.6314 7.733L17.433 9.33823C17.6294 9.73157 18.0066 10.0029 18.4421 10.0641L20.2189 10.3138L18.94 11.5722C18.6266 11.8805 18.4851 12.3231 18.5614 12.7561L18.8731 14.5231L17.2808 13.6956C16.8908 13.4929 16.4261 13.4952 16.038 13.7016L14.4537 14.544L14.7487 12.7741C14.821 12.3404 14.6753 11.8992 14.3591 11.5939L13.0683 10.3475L14.8429 10.081Z" fill="#1E3864"/>
<path d="M47.1418 9.85122C46.9859 9.36345 46.5744 9.01322 46.068 8.93717L44.0996 8.64167L43.2271 6.85257C43.0027 6.39237 42.545 6.10498 42.033 6.10254C41.5238 6.10322 41.0607 6.38328 40.8318 6.84143L39.9425 8.62212L37.9715 8.89905C37.4644 8.97031 37.0496 9.31653 36.8891 9.80284C36.7286 10.2891 36.8556 10.8143 37.2206 11.1735L38.6393 12.5695L38.2936 14.5297C38.2046 15.034 38.4059 15.5355 38.8188 15.8385C39.2317 16.1414 39.7704 16.1828 40.2247 15.9467L41.9908 15.0288L43.7482 15.9633C43.9468 16.069 44.1621 16.1212 44.3764 16.1212C44.65 16.1212 44.9221 16.036 45.1551 15.8684C45.5708 15.5694 45.7768 15.0698 45.6926 14.5647L45.3654 12.6013L46.7973 11.2186C47.1658 10.8628 47.2979 10.339 47.1418 9.85122ZM44.2977 11.5942C43.9815 11.8996 43.8358 12.3408 43.9081 12.7745L44.2031 14.5444L42.6189 13.702C42.4229 13.5978 42.2075 13.5456 41.9918 13.5456C41.7805 13.5456 41.5691 13.5957 41.3759 13.6961L39.7838 14.5235L40.0954 12.7564C40.1717 12.3234 40.0302 11.8809 39.7168 11.5727L38.4379 10.3142L40.2147 10.0645C40.6501 10.0033 41.0272 9.73197 41.2237 9.33863L42.0254 7.73339L42.8118 9.34625C43.0046 9.74135 43.3792 10.0162 43.8139 10.0815L45.5883 10.3479L44.2977 11.5942Z" fill="#1E3864"/>
<path d="M3.52658 25.4916H6.65475C7.05962 25.4916 7.38787 25.1634 7.38787 24.7585C7.38787 24.3536 7.05962 24.0254 6.65475 24.0254H3.52658C3.1217 24.0254 2.79346 24.3536 2.79346 24.7585C2.79346 25.1634 3.1216 25.4916 3.52658 25.4916Z" fill="#1E3864"/>
<path d="M9.77882 25.4915H14.7496C15.5538 25.4915 16.2082 26.1459 16.2082 26.9502V39.4667C16.2082 39.8715 16.5364 40.1998 16.9413 40.1998C17.3462 40.1998 17.6744 39.8715 17.6744 39.4667V27.8863L18.7111 25.7039C19.1565 24.7663 19.9278 24.0265 20.883 23.6205L21.6972 23.2746C21.7254 23.2626 21.7528 23.2488 21.7794 23.2334L26.7454 20.342C26.8819 20.2625 26.989 20.1411 27.0509 19.9959L28.3697 16.9016C28.5949 16.3735 29.1113 16.0322 29.6919 16.0322C30.6728 16.0322 31.5477 16.6184 31.9206 17.5256C32.0721 17.894 32.1489 18.2828 32.1489 18.6813V22.0951C32.1489 23.0436 31.9491 23.962 31.555 24.8247L30.8052 26.4663C30.6138 26.8854 30.6482 27.367 30.8972 27.7545C31.1463 28.1421 31.5701 28.3735 32.0308 28.3735H34.4297C34.8346 28.3735 35.1628 28.0452 35.1628 27.6404C35.1628 27.2355 34.8346 26.9073 34.4297 26.9073H32.2157L32.8886 25.434C33.3707 24.3787 33.6151 23.2552 33.6151 22.0951V18.6813C33.6151 18.0906 33.5012 17.5141 33.2766 16.968C32.6767 15.5088 31.2696 14.5659 29.6854 14.5659C28.5225 14.5659 27.4767 15.2571 27.0208 16.3267L25.7973 19.1972L21.0812 21.9431L20.3093 22.271C19.0238 22.8173 17.9858 23.813 17.3865 25.0745L17.2302 25.4035C16.713 24.5766 15.7945 24.0251 14.7493 24.0251H9.77853C9.37365 24.0251 9.04541 24.3534 9.04541 24.7582C9.04541 25.1631 9.37395 25.4915 9.77882 25.4915Z" fill="#1E3864"/>
</g>
<defs>
<clipPath id="clip0">
<rect width="50" height="50" fill="white"/>
</clipPath>
</defs>
</svg>
