<svg width="40" height="40" viewBox="0 0 40 40" fill="none" xmlns="http://www.w3.org/2000/svg">
<path d="M32.5 18.3031C32.8763 18.3031 33.1813 18.6081 33.1813 18.9844C33.1813 22.3755 30.4224 25.1344 27.0312 25.1344C26.655 25.1344 26.35 24.8294 26.35 24.4531C26.35 24.0768 26.655 23.7719 27.0312 23.7719C29.6713 23.7719 31.8187 21.6244 31.8187 18.9844C31.8187 18.6081 32.1237 18.3031 32.5 18.3031Z" fill="#1E3864" stroke="white" stroke-width="0.2"/>
<path d="M17.7411 28.4233L17.6562 28.2875L17.5714 28.4233C16.8658 29.553 16.0828 30.9054 15.4758 32.1272C15.1724 32.738 14.9121 33.3177 14.7275 33.8215C14.5439 34.3225 14.4312 34.7585 14.4312 35.0781C14.4312 36.916 15.9296 38.5375 17.6562 38.5375C19.3829 38.5375 20.8812 36.916 20.8812 35.0781C20.8812 34.7585 20.7686 34.3225 20.585 33.8215C20.4004 33.3177 20.1401 32.738 19.8367 32.1272C19.2297 30.9054 18.4467 29.553 17.7411 28.4233ZM13.0688 35.0781C13.0688 34.5172 13.2887 33.7507 13.634 32.8974C13.9782 32.0472 14.442 31.1221 14.9198 30.2483C15.8752 28.5008 16.8825 26.9652 17.0884 26.6547C17.2148 26.4644 17.428 26.35 17.6562 26.35C17.8845 26.35 18.0977 26.4644 18.2241 26.6547C18.43 26.9652 19.4373 28.5008 20.3927 30.2483C20.8705 31.1221 21.3343 32.0472 21.6785 32.8974C22.0238 33.7507 22.2437 34.5172 22.2437 35.0781C22.2437 37.6954 20.1374 39.9 17.6562 39.9C15.1751 39.9 13.0688 37.6954 13.0688 35.0781Z" fill="#1E3864" stroke="white" stroke-width="0.2"/>
<path d="M8.50207 13.3628L8.50208 13.3628C8.62929 13.1786 8.83871 13.0688 9.0625 13.0688C9.28629 13.0688 9.49571 13.1786 9.62292 13.3628L9.62293 13.3628C9.8693 13.7194 11.0739 15.4831 12.2165 17.5005C12.7878 18.5094 13.3427 19.5798 13.7543 20.5684C14.1673 21.56 14.4312 22.4577 14.4312 23.125C14.4312 26.0852 12.0227 28.4937 9.0625 28.4937C6.10229 28.4937 3.69375 26.0852 3.69375 23.125C3.69375 22.4577 3.95769 21.56 4.37065 20.5684C4.78235 19.5798 5.33715 18.5094 5.90851 17.5005C7.05112 15.4831 8.2557 13.7194 8.50207 13.3628ZM9.14614 15.0959L9.0625 14.9683L8.97885 15.096C8.11681 16.4117 7.13834 18.0306 6.37494 19.5108C5.99328 20.2508 5.66454 20.9577 5.43097 21.5758C5.19848 22.1909 5.05625 22.7282 5.05625 23.125C5.05625 25.3342 6.85334 27.1313 9.0625 27.1313C11.2717 27.1313 13.0688 25.3342 13.0688 23.125C13.0688 22.728 12.9265 22.1906 12.694 21.5753C12.4605 20.9572 12.1317 20.2503 11.7501 19.5103C10.9867 18.0302 10.0082 16.4115 9.14614 15.0959Z" fill="#1E3864" stroke="white" stroke-width="0.2"/>
<path d="M19.1187 18.2031C19.1187 18.5794 18.8138 18.8844 18.4375 18.8844C18.0612 18.8844 17.7563 18.5794 17.7563 18.2031C17.7563 17.8268 18.0612 17.5219 18.4375 17.5219C18.8138 17.5219 19.1187 17.8268 19.1187 18.2031Z" fill="#1E3864" stroke="white" stroke-width="0.2"/>
<path d="M18.7143 14.9743L18.7143 14.9742C20.9265 9.10406 26.2299 0.770526 26.457 0.41462C26.5824 0.218666 26.7988 0.1 27.0313 0.1C27.2639 0.1 27.4803 0.218657 27.6057 0.414598C28.7188 2.15498 30.8962 5.73155 32.7949 9.41011C33.7443 11.2495 34.6232 13.1126 35.2644 14.7835C35.9068 16.4575 36.3063 17.9274 36.3063 18.9844C36.3063 24.0985 32.1455 28.2594 27.0313 28.2594C22.8912 28.2594 19.2185 25.4779 18.1005 21.4962C17.9991 21.1339 18.2102 20.7576 18.5723 20.656C18.9348 20.5543 19.3108 20.7656 19.4125 21.1278L19.5088 21.1008L19.4125 21.1278C20.3661 24.5249 23.4987 26.8969 27.0313 26.8969C31.3944 26.8969 34.9438 23.3475 34.9438 18.9844C34.9438 18.1156 34.6167 16.9006 34.0927 15.509C33.5674 14.1141 32.8398 12.5305 32.0296 10.9199C30.4091 7.69857 28.4549 4.36284 27.1185 2.20174L27.0333 2.06389L26.9483 2.20191C25.4362 4.65822 21.7003 10.9139 19.9892 15.4548C19.8564 15.8069 19.4634 15.9846 19.1116 15.8519L19.1116 15.8518C18.7595 15.7193 18.5815 15.3263 18.7143 14.9743Z" fill="#1E3864" stroke="white" stroke-width="0.2"/>
</svg>
